<svg width="85" height="115" viewBox="0 0 85 115" fill="none" xmlns="http://www.w3.org/2000/svg">
<path d="M42.5003 4.5L12.8008 14.958L17.3307 53.7345L42.5003 67.5L67.6699 53.7345L72.1997 14.958L42.5003 4.5Z" fill="#007687"/>
<path d="M42.501 4.5V11.493V11.4615V43.371V67.5L67.6706 53.7345L72.2005 14.958L42.501 4.5Z" fill="#116976"/>
<path d="M42.5007 11.4609L23.9346 52.5684H30.857L34.5894 43.3704H50.3483L54.0807 52.5684H61.0031L42.5007 11.4609ZM47.9238 37.7004H37.0776L42.5007 24.8169L47.9238 37.7004Z" fill="white"/>
<path d="M0 104L7.968 86.432H8.016L15.984 104H13.536L11.832 100.16H4.128L2.448 104H0ZM4.968 98.264H10.992C9.744 95.464 8.744 93.08 7.992 91.112C7.192 93.144 6.184 95.528 4.968 98.264ZM17.4484 92H19.5364L19.5844 93.68C19.5844 94.16 19.5524 94.464 19.4884 94.592H19.5364C19.8244 93.904 20.3764 93.256 21.1924 92.648C22.0084 92.024 22.9844 91.712 24.1204 91.712C26.8564 91.712 28.2244 93.296 28.2244 96.464V104H25.9924V96.92C25.9924 96.456 25.9604 96.056 25.8964 95.72C25.8484 95.384 25.7444 95.056 25.5844 94.736C25.4404 94.416 25.2084 94.176 24.8884 94.016C24.5844 93.856 24.1924 93.776 23.7124 93.776C22.5444 93.776 21.5764 94.192 20.8084 95.024C20.0564 95.84 19.6804 96.864 19.6804 98.096V104H17.4484V92ZM33.9414 101.096C33.9414 101.384 34.1414 101.6 34.5414 101.744C34.9414 101.872 35.6854 102 36.7734 102.128C38.3734 102.304 39.5654 102.656 40.3494 103.184C41.1494 103.712 41.5494 104.504 41.5494 105.56C41.5494 106.696 41.0214 107.592 39.9654 108.248C38.9094 108.92 37.5174 109.256 35.7894 109.256C34.1094 109.256 32.7734 108.976 31.7814 108.416C30.7894 107.856 30.2934 107.056 30.2934 106.016C30.2934 105.328 30.6054 104.712 31.2294 104.168C31.8694 103.624 32.6614 103.256 33.6054 103.064C33.0294 102.984 32.5734 102.808 32.2374 102.536C31.9174 102.264 31.7574 101.928 31.7574 101.528C31.7574 101.176 31.9014 100.848 32.1894 100.544C32.4934 100.24 32.9014 100.008 33.4134 99.848C32.5494 99.528 31.8614 99.024 31.3494 98.336C30.8374 97.648 30.5814 96.856 30.5814 95.96C30.5814 94.712 31.0454 93.696 31.9734 92.912C32.9014 92.112 34.0614 91.712 35.4534 91.712C36.1734 91.712 36.8054 91.808 37.3494 92H41.7174V93.68H40.0614L39.3894 93.584L39.2454 93.56C39.9494 94.216 40.3014 95.016 40.3014 95.96C40.3014 97.128 39.8854 98.096 39.0534 98.864C38.2374 99.632 37.1894 100.056 35.9094 100.136H35.8854C35.3414 100.184 34.8774 100.304 34.4934 100.496C34.1254 100.672 33.9414 100.872 33.9414 101.096ZM35.4534 98.576C36.2854 98.576 36.9574 98.336 37.4694 97.856C37.9974 97.376 38.2614 96.76 38.2614 96.008C38.2614 95.256 37.9974 94.64 37.4694 94.16C36.9574 93.664 36.2854 93.416 35.4534 93.416C34.6374 93.416 33.9654 93.664 33.4374 94.16C32.9254 94.64 32.6694 95.256 32.6694 96.008C32.6694 96.76 32.9254 97.376 33.4374 97.856C33.9654 98.336 34.6374 98.576 35.4534 98.576ZM35.8134 107.672C36.8854 107.672 37.7334 107.488 38.3574 107.12C38.9974 106.768 39.3174 106.296 39.3174 105.704C39.3174 104.392 38.0934 103.736 35.6454 103.736C34.7334 103.736 33.9734 103.928 33.3654 104.312C32.7574 104.712 32.4534 105.192 32.4534 105.752C32.4534 106.376 32.7574 106.848 33.3654 107.168C33.9734 107.504 34.7894 107.672 35.8134 107.672ZM53.9372 104H51.8492L51.8012 102.32C51.8012 102.176 51.8092 102.032 51.8252 101.888C51.8412 101.744 51.8572 101.632 51.8732 101.552L51.8972 101.408H51.8492C51.5612 102.096 51.0172 102.752 50.2172 103.376C49.4332 103.984 48.4892 104.288 47.3852 104.288C44.6492 104.288 43.2812 102.704 43.2812 99.536V92H45.5132V99.08C45.5132 99.544 45.5372 99.944 45.5852 100.28C45.6492 100.616 45.7532 100.944 45.8972 101.264C46.0572 101.584 46.2892 101.824 46.5932 101.984C46.9132 102.144 47.3132 102.224 47.7932 102.224C48.9292 102.224 49.8652 101.816 50.6012 101C51.3372 100.168 51.7052 99.136 51.7052 97.904V92H53.9372V104ZM57.5931 86.72H59.8251V104H57.5931V86.72ZM63.1224 94.664V92.6C64.2264 92.008 65.6344 91.712 67.3464 91.712C70.7064 91.712 72.3864 93.256 72.3864 96.344V104H70.3224L70.2984 102.584L70.3704 101.624H70.3224C70.2584 101.768 70.1384 101.96 69.9624 102.2C69.8024 102.44 69.5544 102.736 69.2184 103.088C68.8824 103.424 68.4424 103.712 67.8984 103.952C67.3544 104.176 66.7704 104.288 66.1464 104.288C65.0264 104.288 64.1144 103.976 63.4104 103.352C62.7064 102.712 62.3544 101.848 62.3544 100.76C62.3544 99.272 63.0344 98.2 64.3944 97.544C65.7704 96.872 67.6984 96.712 70.1784 97.064V96.464C70.1784 94.592 69.1304 93.656 67.0344 93.656C65.5464 93.656 64.2424 93.992 63.1224 94.664ZM66.5304 102.488C67.5224 102.488 68.3704 102.088 69.0744 101.288C69.7784 100.488 70.1304 99.6 70.1304 98.624C68.2744 98.32 66.8824 98.368 65.9544 98.768C65.0264 99.168 64.5624 99.808 64.5624 100.688C64.5624 101.216 64.7384 101.648 65.0904 101.984C65.4584 102.32 65.9384 102.488 66.5304 102.488ZM75.4382 104V92H77.5262L77.5502 93.68C77.5502 93.808 77.5422 93.944 77.5262 94.088C77.5262 94.232 77.5262 94.344 77.5262 94.424C77.5262 94.504 77.5262 94.552 77.5262 94.568H77.5502C78.3342 92.664 79.5662 91.712 81.2462 91.712C81.5342 91.712 81.7742 91.736 81.9662 91.784V93.944C81.7742 93.896 81.5662 93.872 81.3422 93.872C80.2382 93.872 79.3502 94.376 78.6782 95.384C78.0062 96.376 77.6702 97.504 77.6702 98.768V104H75.4382Z" fill="#4D6264"/>
</svg>
