<svg width="81" height="23" viewBox="0 0 81 23" fill="none" xmlns="http://www.w3.org/2000/svg">
<path d="M2 10.3555C1.17157 10.3555 0.5 11.027 0.5 11.8555C0.5 12.6839 1.17157 13.3555 2 13.3555L2 10.3555ZM80.0607 12.9161C80.6464 12.3303 80.6464 11.3806 80.0607 10.7948L70.5147 1.24887C69.9289 0.663087 68.9792 0.663086 68.3934 1.24887C67.8076 1.83466 67.8076 2.78441 68.3934 3.37019L76.8787 11.8555L68.3934 20.3408C67.8076 20.9265 67.8076 21.8763 68.3934 22.4621C68.9792 23.0479 69.9289 23.0479 70.5147 22.4621L80.0607 12.9161ZM2 13.3555L79 13.3555L79 10.3555L2 10.3555L2 13.3555Z" fill="black"/>
</svg>
