<svg width="72" height="115" viewBox="0 0 72 115" fill="none" xmlns="http://www.w3.org/2000/svg">
<path d="M9.74499 64.5533L4.46289 0L67.5449 0.129725L61.9596 64.5533L36.242 72L9.74499 64.5533Z" fill="#007687"/>
<path d="M36.2441 67.266V7.64844L62.2217 7.73492L57.5893 61.0749L36.2441 67.266Z" fill="#008699"/>
<path d="M55.7686 13.7656H15.8066L16.8892 21.5583H35.8525L17.1924 29.5682L18.2745 37.1014H45.7676L44.7715 47.6219L35.4628 49.4406L27.0205 47.2759L26.3708 41.3009H18.6209L19.6597 53.7271L36.2854 58.3595L52.2187 53.2942L54.2536 29.005H37.4107L55.7681 21.3853L55.7686 13.7656Z" fill="white"/>
<path d="M30.0448 87.68V89.864C28.3488 89 26.6368 88.568 24.9088 88.568C22.9408 88.568 21.3168 89.208 20.0368 90.488C18.7728 91.768 18.1408 93.392 18.1408 95.36C18.1408 97.328 18.7728 98.952 20.0368 100.232C21.3168 101.512 22.9408 102.152 24.9088 102.152C26.7488 102.152 28.5008 101.728 30.1648 100.88V103.064C29.7008 103.336 29.0048 103.608 28.0768 103.88C27.1488 104.152 26.0928 104.288 24.9088 104.288C22.2848 104.288 20.1088 103.44 18.3808 101.744C16.6688 100.048 15.8128 97.92 15.8128 95.36C15.8128 92.8 16.6688 90.672 18.3808 88.976C20.1088 87.28 22.2848 86.432 24.9088 86.432C26.9088 86.432 28.6208 86.848 30.0448 87.68ZM37.3834 104.288C35.5914 104.288 33.9274 103.952 32.3914 103.28V101C34.0554 101.816 35.6794 102.224 37.2634 102.224C38.3674 102.224 39.2714 102.008 39.9754 101.576C40.6794 101.128 41.0314 100.52 41.0314 99.752C41.0314 98.952 40.7514 98.296 40.1914 97.784C39.6474 97.272 38.6474 96.768 37.1914 96.272C35.4954 95.68 34.2554 94.992 33.4714 94.208C32.7034 93.408 32.3194 92.36 32.3194 91.064C32.3194 89.624 32.8554 88.496 33.9274 87.68C34.9994 86.848 36.3834 86.432 38.0794 86.432C39.6314 86.432 41.0634 86.728 42.3754 87.32V89.504C41.0954 88.832 39.7034 88.496 38.1994 88.496C37.1274 88.496 36.2554 88.72 35.5834 89.168C34.9114 89.616 34.5754 90.224 34.5754 90.992C34.5754 91.728 34.8474 92.368 35.3914 92.912C35.9514 93.44 36.9434 93.952 38.3674 94.448C40.0954 95.072 41.3434 95.776 42.1114 96.56C42.8954 97.328 43.2874 98.336 43.2874 99.584C43.2874 101.056 42.7594 102.208 41.7034 103.04C40.6474 103.872 39.2074 104.288 37.3834 104.288ZM50.3977 104.288C48.6057 104.288 46.9417 103.952 45.4057 103.28V101C47.0697 101.816 48.6937 102.224 50.2777 102.224C51.3817 102.224 52.2857 102.008 52.9897 101.576C53.6937 101.128 54.0457 100.52 54.0457 99.752C54.0457 98.952 53.7657 98.296 53.2057 97.784C52.6617 97.272 51.6617 96.768 50.2057 96.272C48.5097 95.68 47.2697 94.992 46.4857 94.208C45.7177 93.408 45.3337 92.36 45.3337 91.064C45.3337 89.624 45.8697 88.496 46.9417 87.68C48.0137 86.848 49.3977 86.432 51.0937 86.432C52.6457 86.432 54.0777 86.728 55.3897 87.32V89.504C54.1097 88.832 52.7177 88.496 51.2137 88.496C50.1417 88.496 49.2697 88.72 48.5977 89.168C47.9257 89.616 47.5897 90.224 47.5897 90.992C47.5897 91.728 47.8617 92.368 48.4057 92.912C48.9657 93.44 49.9577 93.952 51.3817 94.448C53.1097 95.072 54.3577 95.776 55.1257 96.56C55.9097 97.328 56.3017 98.336 56.3017 99.584C56.3017 101.056 55.7737 102.208 54.7177 103.04C53.6617 103.872 52.2217 104.288 50.3977 104.288Z" fill="#4D6264"/>
</svg>
