<svg width="89" height="115" viewBox="0 0 89 115" fill="none" xmlns="http://www.w3.org/2000/svg">
<path d="M18.2939 58.0967L18.7296 57.4866L39.3344 18.3759L39.3779 17.9618L30.2952 0.894624C29.5338 -0.535017 27.3913 -0.173501 27.1418 1.42694L18.2939 58.0967Z" fill="#3597A6"/>
<path d="M18.5518 57.6222L18.8811 56.9794L39.2703 18.2785L30.2098 1.1419C29.4569 -0.272753 27.5447 0.087942 27.2976 1.67155L18.5518 57.6222Z" fill="#007687"/>
<g filter="url(#filter0_i_14050_4139)">
<path d="M18.5518 57.6222L18.8811 56.9794L39.2703 18.2785L30.2098 1.1419C29.4569 -0.272753 27.5447 0.087942 27.2976 1.67155L18.5518 57.6222Z" fill="#3598A7"/>
</g>
<path d="M46.0015 30.8715L52.7645 23.9429L45.9995 11.024C45.3573 9.80113 43.5643 9.79743 42.929 11.024L39.3145 17.9191V18.5063L46.0013 30.8715H46.0015Z" fill="#3598A7"/>
<path d="M45.8798 30.6027L52.4548 23.8667L45.8798 11.3426C45.2556 10.1538 43.7388 10.0291 43.1211 11.2215L39.4877 18.2237L39.3789 18.5817L45.8798 30.6027V30.6027Z" fill="#3598A7"/>
<g filter="url(#filter1_i_14050_4139)">
<path d="M45.8798 30.6027L52.4548 23.8667L45.8798 11.3426C45.2556 10.1538 43.7388 10.0291 43.1211 11.2215L39.4877 18.2237L39.3789 18.5817L45.8798 30.6027V30.6027Z" fill="#3598A7"/>
</g>
<path d="M18.2939 58.1055L18.4914 57.9068L19.2088 57.6153L45.5747 31.3382L45.9088 30.4285L39.3316 17.8906L18.2939 58.1055Z" fill="#007687"/>
<path d="M46.8442 71.3639L70.7061 58.0515L63.892 16.0706C63.6787 14.7572 62.068 14.238 61.1281 15.1797L18.2939 58.1118L42.0189 71.3629C42.7563 71.7748 43.5868 71.9911 44.4314 71.9912C45.276 71.9914 46.1066 71.7755 46.8442 71.3639" fill="#007687"/>
<path d="M70.4921 57.9506L63.7298 16.2886C63.5184 14.985 62.1787 14.4457 61.246 15.3804L18.5586 58.0409L42.0231 71.1606C42.7549 71.5693 43.5791 71.784 44.4173 71.7842C45.2554 71.7845 46.0797 71.5702 46.8117 71.1618L70.4923 57.9504L70.4921 57.9506Z" fill="#3598A7"/>
<path d="M46.8438 70.979C46.1062 71.3905 45.2757 71.6065 44.4311 71.6063C43.5866 71.6061 42.7561 71.3898 42.0187 70.978L18.4848 57.9174L18.2939 58.1192L42.0187 71.3703C42.7561 71.7822 43.5866 71.9985 44.4312 71.9987C45.2758 71.9988 46.1064 71.7829 46.844 71.3713L70.7058 58.0589L70.6474 57.6992L46.844 70.9792L46.8438 70.979Z" fill="#007687"/>
<path d="M12.4698 88.664H4.69384V94.4H11.2458V96.344H4.69384V104H2.38984V86.72H12.4698V88.664ZM13.8082 92H16.0402V104H13.8082V92ZM13.5202 88.52C13.5202 88.104 13.6482 87.776 13.9042 87.536C14.1602 87.28 14.4962 87.152 14.9122 87.152C15.3282 87.152 15.6642 87.28 15.9202 87.536C16.1762 87.792 16.3042 88.12 16.3042 88.52C16.3042 88.92 16.1762 89.248 15.9202 89.504C15.6642 89.744 15.3282 89.864 14.9122 89.864C14.4962 89.864 14.1602 89.744 13.9042 89.504C13.6482 89.248 13.5202 88.92 13.5202 88.52ZM19.5296 104V92H21.6176L21.6416 93.68C21.6416 93.808 21.6336 93.944 21.6176 94.088C21.6176 94.232 21.6176 94.344 21.6176 94.424C21.6176 94.504 21.6176 94.552 21.6176 94.568H21.6416C22.4256 92.664 23.6576 91.712 25.3376 91.712C25.6256 91.712 25.8656 91.736 26.0576 91.784V93.944C25.8656 93.896 25.6576 93.872 25.4336 93.872C24.3296 93.872 23.4416 94.376 22.7696 95.384C22.0976 96.376 21.7616 97.504 21.7616 98.768V104H19.5296ZM32.9668 91.712C34.6628 91.712 35.9908 92.256 36.9508 93.344C37.9108 94.416 38.3908 95.736 38.3908 97.304C38.3908 97.48 38.3828 97.704 38.3668 97.976C38.3508 98.248 38.3428 98.416 38.3428 98.48H29.4148V98.504C29.4468 99.688 29.8388 100.624 30.5908 101.312C31.3428 102 32.3428 102.344 33.5908 102.344C35.3188 102.344 36.7668 101.968 37.9348 101.216V103.256C36.7188 103.944 35.2228 104.288 33.4468 104.288C31.5588 104.288 30.0228 103.704 28.8388 102.536C27.6708 101.368 27.0868 99.856 27.0868 98C27.0868 96.192 27.6468 94.696 28.7668 93.512C29.9028 92.312 31.3028 91.712 32.9668 91.712ZM36.1828 96.896C36.1988 95.984 35.9188 95.208 35.3428 94.568C34.7668 93.912 33.9668 93.584 32.9428 93.584C31.9668 93.584 31.1588 93.904 30.5188 94.544C29.8948 95.184 29.5348 95.968 29.4388 96.896H36.1828ZM40.9685 104V86.72H43.2005V92.912L43.1285 93.896H43.1765C43.5285 93.288 44.0805 92.776 44.8325 92.36C45.5845 91.928 46.4245 91.712 47.3525 91.712C48.9365 91.712 50.2485 92.296 51.2885 93.464C52.3445 94.632 52.8725 96.144 52.8725 98C52.8725 99.84 52.3445 101.352 51.2885 102.536C50.2325 103.704 48.9045 104.288 47.3045 104.288C46.3765 104.288 45.5205 104.032 44.7365 103.52C43.9525 103.008 43.3925 102.4 43.0565 101.696H43.0085C43.0565 101.936 43.0805 102.232 43.0805 102.584L43.0325 104H40.9685ZM46.9925 93.656C45.9845 93.656 45.1045 94.032 44.3525 94.784C43.6005 95.536 43.2245 96.608 43.2245 98C43.2245 99.392 43.6005 100.464 44.3525 101.216C45.1045 101.968 45.9845 102.344 46.9925 102.344C48.0965 102.344 48.9925 101.936 49.6805 101.12C50.3685 100.304 50.7125 99.264 50.7125 98C50.7125 96.72 50.3685 95.68 49.6805 94.88C48.9925 94.064 48.0965 93.656 46.9925 93.656ZM55.1463 94.664V92.6C56.2503 92.008 57.6583 91.712 59.3703 91.712C62.7303 91.712 64.4103 93.256 64.4103 96.344V104H62.3463L62.3223 102.584L62.3943 101.624H62.3463C62.2823 101.768 62.1623 101.96 61.9863 102.2C61.8263 102.44 61.5783 102.736 61.2423 103.088C60.9063 103.424 60.4663 103.712 59.9223 103.952C59.3783 104.176 58.7943 104.288 58.1703 104.288C57.0503 104.288 56.1383 103.976 55.4343 103.352C54.7303 102.712 54.3783 101.848 54.3783 100.76C54.3783 99.272 55.0583 98.2 56.4183 97.544C57.7943 96.872 59.7223 96.712 62.2023 97.064V96.464C62.2023 94.592 61.1543 93.656 59.0583 93.656C57.5703 93.656 56.2663 93.992 55.1463 94.664ZM58.5543 102.488C59.5463 102.488 60.3943 102.088 61.0983 101.288C61.8023 100.488 62.1543 99.6 62.1543 98.624C60.2983 98.32 58.9063 98.368 57.9783 98.768C57.0503 99.168 56.5863 99.808 56.5863 100.688C56.5863 101.216 56.7623 101.648 57.1143 101.984C57.4823 102.32 57.9623 102.488 58.5543 102.488ZM72.9101 100.88C72.9101 100.4 72.7101 100.024 72.3101 99.752C71.9101 99.48 71.2221 99.184 70.2461 98.864C69.0461 98.48 68.1421 98.008 67.5341 97.448C66.9261 96.888 66.6221 96.104 66.6221 95.096C66.6221 94.104 67.0221 93.296 67.8221 92.672C68.6381 92.032 69.6701 91.712 70.9181 91.712C72.1501 91.712 73.2781 91.952 74.3021 92.432V94.448C73.2461 93.888 72.1981 93.608 71.1581 93.608C70.4381 93.608 69.8461 93.744 69.3821 94.016C68.9341 94.272 68.7101 94.656 68.7101 95.168C68.7101 95.616 68.9021 95.984 69.2861 96.272C69.6701 96.544 70.3021 96.824 71.1821 97.112C72.5261 97.56 73.4941 98.064 74.0861 98.624C74.6781 99.168 74.9741 99.928 74.9741 100.904C74.9741 101.976 74.5741 102.808 73.7741 103.4C72.9901 103.992 71.9341 104.288 70.6061 104.288C69.1021 104.288 67.7981 104.024 66.6941 103.496V101.456C68.0381 102.112 69.3181 102.44 70.5341 102.44C71.2221 102.44 71.7901 102.312 72.2381 102.056C72.6861 101.8 72.9101 101.408 72.9101 100.88ZM82.3524 91.712C84.0484 91.712 85.3764 92.256 86.3364 93.344C87.2964 94.416 87.7764 95.736 87.7764 97.304C87.7764 97.48 87.7684 97.704 87.7524 97.976C87.7364 98.248 87.7284 98.416 87.7284 98.48H78.8004V98.504C78.8324 99.688 79.2244 100.624 79.9764 101.312C80.7284 102 81.7284 102.344 82.9764 102.344C84.7044 102.344 86.1524 101.968 87.3204 101.216V103.256C86.1044 103.944 84.6084 104.288 82.8324 104.288C80.9444 104.288 79.4084 103.704 78.2244 102.536C77.0564 101.368 76.4724 99.856 76.4724 98C76.4724 96.192 77.0324 94.696 78.1524 93.512C79.2884 92.312 80.6884 91.712 82.3524 91.712ZM85.5684 96.896C85.5844 95.984 85.3044 95.208 84.7284 94.568C84.1524 93.912 83.3524 93.584 82.3284 93.584C81.3524 93.584 80.5444 93.904 79.9044 94.544C79.2804 95.184 78.9204 95.968 78.8244 96.896H85.5684Z" fill="#4D6264"/>
<defs>
<filter id="filter0_i_14050_4139" x="18.5518" y="0.257812" width="20.7188" height="57.3633" filterUnits="userSpaceOnUse" color-interpolation-filters="sRGB">
<feFlood flood-opacity="0" result="BackgroundImageFix"/>
<feBlend mode="normal" in="SourceGraphic" in2="BackgroundImageFix" result="shape"/>
<feColorMatrix in="SourceAlpha" type="matrix" values="0 0 0 0 0 0 0 0 0 0 0 0 0 0 0 0 0 0 127 0" result="hardAlpha"/>
<feOffset/>
<feGaussianBlur stdDeviation="1.19711"/>
<feComposite in2="hardAlpha" operator="arithmetic" k2="-1" k3="1"/>
<feColorMatrix type="matrix" values="0 0 0 0 0 0 0 0 0 0 0 0 0 0 0 0 0 0 0.06 0"/>
<feBlend mode="normal" in2="shape" result="effect1_innerShadow_14050_4139"/>
</filter>
<filter id="filter1_i_14050_4139" x="39.3789" y="9.90787" width="13.1446" height="20.6937" filterUnits="userSpaceOnUse" color-interpolation-filters="sRGB">
<feFlood flood-opacity="0" result="BackgroundImageFix"/>
<feBlend mode="normal" in="SourceGraphic" in2="BackgroundImageFix" result="shape"/>
<feColorMatrix in="SourceAlpha" type="matrix" values="0 0 0 0 0 0 0 0 0 0 0 0 0 0 0 0 0 0 127 0" result="hardAlpha"/>
<feOffset dx="0.0684063" dy="-0.615657"/>
<feGaussianBlur stdDeviation="0.239422"/>
<feComposite in2="hardAlpha" operator="arithmetic" k2="-1" k3="1"/>
<feColorMatrix type="matrix" values="0 0 0 0 0 0 0 0 0 0 0 0 0 0 0 0 0 0 0.09 0"/>
<feBlend mode="normal" in2="shape" result="effect1_innerShadow_14050_4139"/>
</filter>
</defs>
</svg>
