<svg width="85" height="115" viewBox="0 0 85 115" fill="none" xmlns="http://www.w3.org/2000/svg">
<path fill-rule="evenodd" clip-rule="evenodd" d="M49.4297 69.7491L31.1641 51.6034L41.2591 41.332L69.7326 69.7491H49.4297Z" fill="#007687"/>
<path fill-rule="evenodd" clip-rule="evenodd" d="M30.9385 51.6191L49.0419 33.5156H69.3942L41.2309 61.6789L30.9385 51.6191Z" fill="#3598A7"/>
<path fill-rule="evenodd" clip-rule="evenodd" d="M15.2666 35.8274L25.545 46.0987L69.3937 2.25H48.9357L15.2666 35.8274Z" fill="#3598A7"/>
<path d="M19.3911 88.664H11.6151V94.4H18.1671V96.344H11.6151V104H9.31109V86.72H19.3911V88.664ZM20.9638 100.928V86.72H23.1958V100.472C23.1958 101.112 23.2998 101.576 23.5078 101.864C23.7318 102.152 24.0918 102.296 24.5878 102.296C25.0038 102.296 25.3558 102.248 25.6438 102.152V104.072C25.2118 104.216 24.6758 104.288 24.0358 104.288C23.0918 104.288 22.3398 104.016 21.7798 103.472C21.2358 102.928 20.9638 102.08 20.9638 100.928ZM37.9695 104H35.8815L35.8335 102.32C35.8335 102.176 35.8415 102.032 35.8575 101.888C35.8735 101.744 35.8895 101.632 35.9055 101.552L35.9295 101.408H35.8815C35.5935 102.096 35.0495 102.752 34.2495 103.376C33.4655 103.984 32.5215 104.288 31.4175 104.288C28.6815 104.288 27.3135 102.704 27.3135 99.536V92H29.5455V99.08C29.5455 99.544 29.5695 99.944 29.6175 100.28C29.6815 100.616 29.7855 100.944 29.9295 101.264C30.0895 101.584 30.3215 101.824 30.6255 101.984C30.9455 102.144 31.3455 102.224 31.8255 102.224C32.9615 102.224 33.8975 101.816 34.6335 101C35.3695 100.168 35.7375 99.136 35.7375 97.904V92H37.9695V104ZM39.8734 92H41.8654V88.4H44.0494V92H47.6734V93.824H44.0494V100.04C44.0494 101.56 44.6414 102.32 45.8254 102.32C46.5774 102.32 47.3294 102.144 48.0814 101.792V103.736C47.4094 104.104 46.5134 104.288 45.3934 104.288C44.4014 104.288 43.5614 104 42.8734 103.424C42.1854 102.848 41.8414 101.944 41.8414 100.712V93.824H39.8734V92ZM48.2003 92H50.1923V88.4H52.3763V92H56.0003V93.824H52.3763V100.04C52.3763 101.56 52.9683 102.32 54.1523 102.32C54.9043 102.32 55.6563 102.144 56.4083 101.792V103.736C55.7363 104.104 54.8403 104.288 53.7203 104.288C52.7283 104.288 51.8883 104 51.2003 103.424C50.5123 102.848 50.1683 101.944 50.1683 100.712V93.824H48.2003V92ZM63.034 91.712C64.73 91.712 66.058 92.256 67.018 93.344C67.978 94.416 68.458 95.736 68.458 97.304C68.458 97.48 68.45 97.704 68.434 97.976C68.418 98.248 68.41 98.416 68.41 98.48H59.482V98.504C59.514 99.688 59.906 100.624 60.658 101.312C61.41 102 62.41 102.344 63.658 102.344C65.386 102.344 66.834 101.968 68.002 101.216V103.256C66.786 103.944 65.29 104.288 63.514 104.288C61.626 104.288 60.09 103.704 58.906 102.536C57.738 101.368 57.154 99.856 57.154 98C57.154 96.192 57.714 94.696 58.834 93.512C59.97 92.312 61.37 91.712 63.034 91.712ZM66.25 96.896C66.266 95.984 65.986 95.208 65.41 94.568C64.834 93.912 64.034 93.584 63.01 93.584C62.034 93.584 61.226 93.904 60.586 94.544C59.962 95.184 59.602 95.968 59.506 96.896H66.25ZM70.8677 104V92H72.9557L72.9797 93.68C72.9797 93.808 72.9717 93.944 72.9557 94.088C72.9557 94.232 72.9557 94.344 72.9557 94.424C72.9557 94.504 72.9557 94.552 72.9557 94.568H72.9797C73.7637 92.664 74.9957 91.712 76.6757 91.712C76.9637 91.712 77.2037 91.736 77.3957 91.784V93.944C77.2037 93.896 76.9957 93.872 76.7717 93.872C75.6677 93.872 74.7797 94.376 74.1077 95.384C73.4357 96.376 73.0997 97.504 73.0997 98.768V104H70.8677Z" fill="#4D6264"/>
</svg>
