<svg width="128" height="60" viewBox="0 0 128 60" fill="none" xmlns="http://www.w3.org/2000/svg">
<g clip-path="url(#clip0_3250_2727)">
<path d="M21.1238 50.8444V58.8797C21.1238 59.1412 21.0211 59.3921 20.8382 59.5771C20.6553 59.762 20.4072 59.8659 20.1486 59.8659C19.89 59.8659 19.6419 59.762 19.459 59.5771C19.2761 59.3921 19.1734 59.1412 19.1734 58.8797V55.9234C18.9759 56.2221 18.754 56.5035 18.51 56.7646C17.9192 57.39 17.2451 57.9291 16.5072 58.3663C15.7069 58.8407 14.8499 59.2094 13.957 59.4636C13.031 59.7308 12.0728 59.8667 11.1099 59.8672C9.59809 59.8786 8.10045 59.5729 6.71148 58.9692C5.38096 58.3955 4.17971 57.554 3.18097 56.496C1.12175 54.2942 -0.0185909 51.3741 -0.00276718 48.3434C-0.00858178 46.8314 0.282758 45.3333 0.854362 43.9361C1.42597 42.539 2.26642 41.2706 3.32688 40.2048C4.37422 39.1607 5.60549 38.324 6.9571 37.7378C8.35651 37.1262 9.86592 36.814 11.3904 36.8209C12.2697 36.8125 13.1475 36.897 14.0093 37.0732C14.7716 37.2367 15.5106 37.496 16.2091 37.8451C16.8975 38.1947 17.5472 38.6175 18.1471 39.1063C18.8097 39.6506 19.4378 40.2365 20.0276 40.8606C20.161 40.9989 20.2513 41.1738 20.2873 41.3635C20.3233 41.5532 20.3034 41.7495 20.23 41.9278C20.1567 42.1062 20.0332 42.2589 19.8749 42.367C19.7165 42.475 19.5303 42.5336 19.3393 42.5355C19.1836 42.5302 19.0309 42.4906 18.8919 42.4193C18.753 42.3481 18.6311 42.247 18.5349 42.1231C17.6186 41.0751 16.5087 40.2183 15.2676 39.6007C14.0509 39.0432 12.7273 38.7654 11.3917 38.7872C10.1309 38.7798 8.88186 39.0334 7.7216 39.5326C5.45434 40.5045 3.64949 42.3298 2.68843 44.6228C2.19494 45.7963 1.94412 47.0595 1.95141 48.3346C1.94005 50.8445 2.87936 53.2635 4.57646 55.0948C5.4189 55.987 6.43335 56.6949 7.55711 57.1747C8.68088 57.6546 9.89008 57.8962 11.1099 57.8846C12.0595 57.8843 13.0015 57.7134 13.8921 57.3801C14.7754 57.0556 15.603 56.5934 16.3451 56.0104C17.0627 55.4465 17.6812 54.7643 18.1745 53.9924C18.5947 53.3297 18.8906 52.5943 19.0474 51.8231H13.2673C13.1394 51.8231 13.0129 51.7969 12.8952 51.7462C12.7776 51.6955 12.6712 51.6213 12.5826 51.528C12.4476 51.3904 12.3558 51.2155 12.3187 51.0253C12.2815 50.835 12.3007 50.638 12.3738 50.4587C12.4469 50.2795 12.5707 50.126 12.7296 50.0176C12.8886 49.9092 13.0756 49.8507 13.2673 49.8493H20.2509C20.49 49.8762 20.7114 49.9895 20.8744 50.1684C21.0418 50.3521 21.1313 50.5948 21.1238 50.8444Z" fill="#333333"/>
<path d="M42.5003 58.9227C42.4896 59.071 42.4471 59.2152 42.3756 59.3452C42.2922 59.4951 42.1697 59.619 42.0214 59.7034C41.8745 59.7879 41.7079 59.8314 41.5388 59.8295C41.3489 59.8368 41.1605 59.7933 40.9926 59.7034C40.3475 59.306 39.8413 58.7146 39.5447 58.0121C39.1116 56.816 38.9252 55.543 38.9973 54.2713C39.0602 53.6743 38.979 53.0708 38.7605 52.5126C38.5419 51.9544 38.1927 51.4582 37.7427 51.0665C36.8711 50.437 35.8205 50.1116 34.7497 50.1395H27.6091V58.8899C27.6179 59.1483 27.5256 59.3998 27.3522 59.5899C27.2653 59.6816 27.1601 59.7537 27.0436 59.8014C26.9271 59.849 26.8018 59.871 26.6762 59.8661C26.3942 59.8728 26.1195 59.7745 25.9044 59.5899C25.8018 59.5054 25.7196 59.3986 25.6638 59.2773C25.6081 59.156 25.5803 59.0236 25.5826 58.8899V38.0709C25.5783 37.9416 25.6003 37.8126 25.6472 37.6922C25.6942 37.5718 25.7651 37.4624 25.8556 37.3709C25.9462 37.2793 26.0543 37.2076 26.1734 37.1601C26.2924 37.1126 26.4199 37.0904 26.5478 37.0947H35.2324C36.3751 37.0753 37.5041 37.3496 38.5134 37.8918C39.4541 38.3999 40.2388 39.1594 40.7818 40.0876C41.3344 41.0434 41.6182 42.1337 41.6024 43.2407C41.6267 44.5433 41.2501 45.8214 40.525 46.8982C39.8509 47.9159 38.8604 48.677 37.7103 49.0612C38.6536 49.4304 39.462 50.0837 40.0261 50.9328C40.6475 51.8824 40.9725 52.999 40.9589 54.1376C40.9373 55.0887 41.029 56.0389 41.232 56.9678C41.3407 57.4345 41.6229 57.841 42.0202 58.1029C42.1642 58.185 42.2843 58.304 42.3686 58.4479C42.4529 58.5917 42.4982 58.7555 42.5003 58.9227ZM35.3271 48.3499C36.0762 48.2854 36.7963 48.0274 37.4185 47.6007C38.0717 47.1565 38.603 46.5521 38.9624 45.8438C39.3601 45.0594 39.5593 44.1876 39.5422 43.3063C39.5583 42.7349 39.4565 42.1663 39.2433 41.6369C39.03 41.1075 38.7102 40.6288 38.3039 40.2314C37.8728 39.82 37.3645 39.5002 36.8091 39.2907C36.2537 39.0812 35.6625 38.9864 35.0703 39.0118H27.6078V48.3448L35.3271 48.3499Z" fill="#333333"/>
<path d="M63.9844 58.96C63.9891 59.0882 63.9656 59.216 63.9155 59.334C63.8655 59.452 63.7903 59.5573 63.6951 59.6423C63.5108 59.813 63.2691 59.9063 63.0192 59.9033C62.8174 59.9075 62.6199 59.8445 62.4568 59.7243C62.2922 59.6041 62.1629 59.4411 62.0826 59.2525L59.6696 53.2996H49.2154L46.8348 59.2525C46.7801 59.4429 46.6649 59.6097 46.5072 59.7273C46.3494 59.8449 46.1578 59.9068 45.9619 59.9033C45.8401 59.9129 45.7175 59.8976 45.6016 59.8584C45.4857 59.8192 45.3788 59.7568 45.2872 59.6751C45.1297 59.5077 45.0379 59.288 45.029 59.0571V58.96C45.0253 58.8613 45.0362 58.7627 45.0615 58.6673L53.554 37.6516C53.622 37.4512 53.7534 37.279 53.9278 37.1616C54.1023 37.0442 54.3102 36.9881 54.5192 37.0021C54.7208 36.9981 54.9182 37.0605 55.0817 37.18C55.2454 37.3009 55.3745 37.4637 55.4558 37.6516L63.9146 58.569C63.9525 58.6962 63.9759 58.8274 63.9844 58.96ZM49.96 51.38H58.9026L54.3995 40.2535L49.96 51.38Z" fill="#333333"/>
<path d="M79.7103 37.9242C80.6458 38.4685 81.4101 39.269 81.9152 40.2336C82.4496 41.2609 82.7206 42.4075 82.7032 43.5682C82.7168 44.7438 82.4463 45.905 81.9152 46.9508C81.4108 47.9535 80.6384 48.793 79.6859 49.374C78.7334 49.955 77.6388 50.2542 76.5265 50.2375H69.8685V58.8908C69.8685 59.1497 69.7668 59.398 69.5858 59.581C69.4047 59.7641 69.1592 59.867 68.9032 59.867C68.6472 59.867 68.4017 59.7641 68.2207 59.581C68.0397 59.398 67.938 59.1497 67.938 58.8908V38.0706C67.9339 37.9412 67.956 37.8124 68.003 37.6921C68.0501 37.5717 68.121 37.4624 68.2114 37.3709C68.3019 37.2794 68.41 37.2077 68.529 37.1601C68.648 37.1125 68.7754 37.0902 68.9032 37.0944H76.5265C77.6421 37.0776 78.7417 37.3642 79.7103 37.9242ZM79.5507 46.9823C80.338 46.0262 80.7499 44.8105 80.708 43.567C80.7576 42.3615 80.3428 41.1836 79.5507 40.2815C79.1667 39.8623 78.6976 39.5319 78.1757 39.3129C77.6538 39.0939 77.0912 38.9915 76.5265 39.0127H69.8685V48.3457H76.5265C77.0997 48.3644 77.6696 48.2515 78.1934 48.0153C78.7172 47.7792 79.1813 47.426 79.5507 46.9823Z" fill="#333333"/>
<path d="M103.948 37.371C104.04 37.468 104.112 37.583 104.159 37.709C104.206 37.835 104.227 37.9693 104.221 38.1038V58.8571C104.212 59.1343 104.096 59.3971 103.899 59.5899C103.709 59.7725 103.455 59.8717 103.192 59.8661C103.061 59.8674 102.931 59.8423 102.809 59.792C102.687 59.7418 102.577 59.6675 102.484 59.5736C102.391 59.4796 102.317 59.3679 102.268 59.2448C102.218 59.1218 102.193 58.99 102.195 58.8571V49.1646H89.1358V58.8584C89.1196 59.1291 89.005 59.3842 88.8141 59.5747C88.7223 59.6698 88.6122 59.7448 88.4905 59.7951C88.3689 59.8455 88.2384 59.87 88.107 59.8674C87.9738 59.8761 87.8402 59.8559 87.7152 59.8083C87.5903 59.7607 87.4769 59.6867 87.3825 59.5912C87.288 59.4957 87.2148 59.3809 87.1677 59.2546C87.1207 59.1282 87.1008 58.9931 87.1094 58.8584V38.1038C87.1036 37.9679 87.1263 37.8323 87.1762 37.706C87.2261 37.5796 87.3019 37.4655 87.3987 37.371C87.5995 37.1839 87.8653 37.0846 88.1382 37.0948C88.2695 37.0936 88.3997 37.1189 88.5213 37.1692C88.6429 37.2195 88.7534 37.2937 88.8462 37.3877C88.9391 37.4816 89.0125 37.5933 89.0622 37.7163C89.112 37.8392 89.137 37.9709 89.1358 38.1038V47.2766H102.195V38.1038C102.192 37.9693 102.218 37.8358 102.271 37.7123C102.324 37.5887 102.402 37.478 102.5 37.3874C102.596 37.2928 102.709 37.2183 102.833 37.1681C102.957 37.1179 103.09 37.093 103.223 37.0948C103.356 37.0887 103.489 37.1101 103.614 37.1576C103.738 37.205 103.852 37.2777 103.948 37.371Z" fill="#333333"/>
<path d="M125.418 58.4057C125.55 58.5733 125.629 58.7773 125.644 58.9909C125.65 59.1282 125.625 59.2651 125.572 59.3918C125.52 59.5184 125.44 59.6318 125.339 59.7237C125.151 59.9013 124.904 60.0001 124.647 59.9999C124.493 60.0024 124.341 59.9648 124.206 59.8908C124.071 59.8168 123.957 59.7089 123.875 59.5774L116.927 50.0451L110.012 59.5446C109.935 59.6832 109.823 59.7986 109.687 59.8786C109.551 59.9586 109.396 60.0005 109.239 59.9999C109.121 60.0031 109.004 59.98 108.897 59.9322C108.789 59.8845 108.693 59.8133 108.616 59.7237C108.463 59.5608 108.378 59.346 108.375 59.122C108.381 58.8868 108.46 58.6594 108.599 58.4713L115.832 48.5165L108.563 38.5616C108.418 38.4017 108.337 38.1923 108.337 37.9751C108.338 37.8459 108.365 37.7183 108.418 37.6007C108.47 37.483 108.547 37.3781 108.643 37.2928C108.734 37.2003 108.841 37.1268 108.96 37.0766C109.079 37.0264 109.206 37.0004 109.335 37.0002C109.49 36.9982 109.643 37.0324 109.782 37.1C109.922 37.1676 110.044 37.2668 110.139 37.3899L117.054 46.9223L123.938 37.4227C124.027 37.2981 124.143 37.1955 124.276 37.1223C124.41 37.0492 124.558 37.0074 124.71 37.0002C124.952 36.9947 125.188 37.0815 125.37 37.2436C125.457 37.3171 125.526 37.4092 125.573 37.5133C125.621 37.6173 125.644 37.7307 125.643 37.8452C125.626 38.0683 125.548 38.2823 125.417 38.4632L118.184 48.4509L125.418 58.4057Z" fill="#333333"/>
<path d="M23.9884 0.386052C24.1182 0.521901 24.2193 0.683146 24.2854 0.8599C24.3514 1.03665 24.381 1.22519 24.3724 1.41395V30.557C24.3593 30.9458 24.1974 31.3143 23.921 31.5849C23.7882 31.7129 23.6317 31.8131 23.4605 31.8798C23.2893 31.9464 23.1068 31.9782 22.9234 31.9733C22.739 31.975 22.5561 31.9395 22.3855 31.8689C22.2148 31.7984 22.0598 31.6941 21.9294 31.5622C21.799 31.4304 21.6959 31.2736 21.6261 31.101C21.5564 30.9284 21.5213 30.7435 21.5229 30.557V16.9446H3.19104L3.19104 30.557C3.16925 30.9382 3.00839 31.2977 2.7396 31.566C2.61001 31.6999 2.4546 31.8056 2.28299 31.8763C2.11138 31.947 1.92723 31.9813 1.74196 31.9771C1.55497 31.9891 1.36756 31.9607 1.19226 31.8938C1.01696 31.8269 0.857791 31.723 0.725297 31.589C0.592803 31.455 0.490057 31.294 0.423883 31.1167C0.357709 30.9394 0.329637 30.7499 0.341526 30.5608L0.341526 1.41395C0.333497 1.22327 0.365597 1.03305 0.43568 0.855848C0.505763 0.678652 0.612218 0.518525 0.748056 0.386052C1.0301 0.123045 1.40349 -0.0165832 1.78687 -0.00240696C1.97125 -0.00408997 2.15411 0.0313988 2.32478 0.101981C2.49544 0.172564 2.65048 0.276827 2.78086 0.408684C2.91123 0.540541 3.01431 0.697346 3.0841 0.869945C3.15389 1.04255 3.18897 1.22748 3.18731 1.41395L3.18731 14.2948L21.5192 14.2948V1.41395C21.5155 1.22456 21.5519 1.03657 21.6258 0.862555C21.6998 0.688542 21.8097 0.53253 21.9482 0.40497C22.0825 0.272195 22.2414 0.167531 22.4158 0.0969774C22.5902 0.0264237 22.7767 -0.00863377 22.9645 -0.00618854C23.1527 -0.0154027 23.3407 0.0146664 23.5168 0.0821494C23.693 0.149633 23.8535 0.253084 23.9884 0.386052Z" fill="#333333"/>
<path d="M35.2561 31.5656C35.1265 31.6995 34.9711 31.8052 34.7995 31.8759C34.6278 31.9466 34.4437 31.9809 34.2584 31.9767C34.0715 31.9885 33.8842 31.96 33.709 31.893C33.5338 31.826 33.3747 31.7221 33.2422 31.5881C33.1098 31.4542 33.0071 31.2932 32.9408 31.116C32.8746 30.9388 32.8463 30.7494 32.858 30.5604V1.41734C32.85 1.22667 32.8821 1.03647 32.9522 0.859286C33.0223 0.682101 33.1287 0.521964 33.2645 0.389442C33.5466 0.126435 33.92 -0.0131933 34.3033 0.000982984C34.4882 -0.00154508 34.6718 0.0333196 34.8431 0.103524C35.0145 0.173728 35.1703 0.277856 35.3014 0.409798C35.4324 0.541741 35.5361 0.698839 35.6063 0.871858C35.6764 1.04488 35.7117 1.23033 35.71 1.41734V30.5604C35.6865 30.9406 35.5248 31.2986 35.2561 31.5656Z" fill="#333333"/>
<path d="M93.5674 30.6487C93.551 30.8578 93.4893 31.0606 93.3865 31.2428C93.269 31.4539 93.0965 31.6284 92.8877 31.7473C92.682 31.8678 92.4483 31.9309 92.2105 31.9301C91.943 31.9386 91.6781 31.8755 91.4424 31.7473C90.5367 31.1891 89.8261 30.3588 89.4097 29.3724C88.8014 27.6929 88.5399 25.9051 88.6414 24.1194C88.7295 23.2814 88.6152 22.4344 88.3085 21.6508C88.0018 20.8673 87.5119 20.1706 86.8806 19.6206C85.6573 18.7373 84.1831 18.2805 82.6805 18.319H72.6541V30.6071C72.6662 30.9696 72.5363 31.3223 72.2924 31.5883C72.1704 31.7173 72.0227 31.8186 71.8591 31.8856C71.6955 31.9526 71.5198 31.9837 71.3434 31.9768C70.9474 31.9856 70.5619 31.8474 70.2597 31.5883C70.1155 31.4704 69.9999 31.3207 69.9216 31.1506C69.8434 30.9805 69.8046 30.7946 69.8083 30.6071V1.36451C69.8024 1.18298 69.8334 1.00215 69.8993 0.833201C69.9653 0.664259 70.0648 0.510798 70.1917 0.382303C70.3187 0.253809 70.4703 0.153015 70.6373 0.0861517C70.8043 0.0192879 70.9831 -0.0122245 71.1626 -0.00643454L83.3576 -0.00643454C84.9621 -0.0339487 86.5472 0.350979 87.9643 1.11227C89.2849 1.8257 90.3862 2.89243 91.1481 4.19595C91.9245 5.53886 92.3226 7.07115 92.2991 8.62662C92.3346 10.457 91.8059 12.2532 90.7864 13.766C89.8401 15.195 88.4493 16.2638 86.8345 16.8031C88.1593 17.3208 89.2946 18.2379 90.0868 19.4302C90.9594 20.7635 91.4156 22.3314 91.3962 23.9302C91.3657 25.2657 91.4947 26.6001 91.7803 27.9043C91.9312 28.5618 92.3275 29.1348 92.8864 29.5035C93.089 29.6176 93.2584 29.7834 93.3778 29.9843C93.4973 30.1853 93.5627 30.4143 93.5674 30.6487ZM83.4961 15.8029C84.5474 15.7127 85.5582 15.3509 86.4317 14.7523C87.3487 14.1282 88.0947 13.2795 88.6003 12.2854C89.1579 11.1838 89.4373 9.95978 89.4134 8.72247C89.4361 7.9204 89.2932 7.12237 88.9939 6.37926C88.6945 5.63616 88.2453 4.96432 87.6749 4.40658C87.0696 3.82922 86.3561 3.38024 85.5765 3.08609C84.7969 2.79193 83.967 2.65857 83.1357 2.69384L72.6603 2.69384V15.8042L83.4961 15.8029Z" fill="#333333"/>
<path d="M62.131 14.0781L42.9948 14.0781C42.2 14.0781 41.5557 14.7297 41.5557 15.5336C41.5557 16.3374 42.2 16.989 42.9948 16.989H62.131C62.9258 16.989 63.5702 16.3374 63.5702 15.5336C63.5702 14.7297 62.9258 14.0781 62.131 14.0781Z" fill="#333333"/>
<path d="M62.131 23.5547H42.9948C42.2 23.5547 41.5557 24.2063 41.5557 25.0101C41.5557 25.8139 42.2 26.4656 42.9948 26.4656H62.131C62.9258 26.4656 63.5702 25.8139 63.5702 25.0101C63.5702 24.2063 62.9258 23.5547 62.131 23.5547Z" fill="#333333"/>
<path d="M117.91 25.7448C118.908 26.9547 119.905 28.1621 120.903 29.367C119.026 30.6199 116.904 31.4476 114.681 31.7936C115.719 29.7756 116.773 27.7489 117.828 25.7397C117.842 25.7166 117.852 25.6909 117.856 25.6641C117.877 25.7019 117.903 25.7309 117.91 25.7448Z" fill="#333333"/>
<path d="M128 16.0663C128.007 19.9861 126.575 23.7691 123.983 26.6832C122.902 25.3766 121.817 24.0654 120.727 22.7495L127.324 20.6735V20.6559C127.303 20.6445 127.289 20.6559 127.268 20.642C123.035 18.3903 118.801 16.1352 114.565 13.8768C112.332 12.7026 110.113 11.5246 107.891 10.3328L114.501 31.8227C113.757 31.9312 113.007 31.9852 112.256 31.9841C109.143 31.9841 106.1 31.0506 103.512 29.3015C100.923 27.5524 98.9059 25.0664 97.7147 22.1578C96.5234 19.2492 96.2117 16.0486 96.819 12.9609C97.4263 9.87312 98.9254 7.03682 101.127 4.81067C103.328 2.58452 106.132 1.06849 109.185 0.454301C112.238 -0.159893 115.403 0.155335 118.279 1.36012C121.155 2.5649 123.613 4.60513 125.343 7.22281C127.072 9.84049 127.995 12.918 127.995 16.0663H128Z" fill="#333333"/>
<path d="M62.3899 3.75L43.2536 3.75C42.4588 3.75 41.8145 4.40162 41.8145 5.20544C41.8145 6.00926 42.4588 6.66089 43.2536 6.66089L62.3899 6.66089C63.1847 6.66089 63.829 6.00926 63.829 5.20544C63.829 4.40162 63.1847 3.75 62.3899 3.75Z" fill="#333333"/>
</g>
<defs>
<clipPath id="clip0_3250_2727">
<rect width="128" height="60" fill="white"/>
</clipPath>
</defs>
</svg>
