<svg width="105" height="115" viewBox="0 0 105 115" fill="none" xmlns="http://www.w3.org/2000/svg">
<g clip-path="url(#clip0_14050_4182)">
<path d="M16.5 0H88.5V72H16.5V0Z" fill="#007687"/>
<path d="M82.6149 54.8296C82.0879 51.5444 79.9457 48.7862 73.6012 46.2129C71.3974 45.1999 68.9404 44.4745 68.2081 42.8045C67.948 41.8326 67.9138 41.2851 68.078 40.6965C68.5503 38.787 70.8294 38.1916 72.6362 38.7391C73.7997 39.1292 74.9016 40.0259 75.5655 41.4562C78.6727 39.4441 78.6659 39.4577 80.8354 38.0753C80.0415 36.8433 79.6172 36.2752 79.097 35.7483C77.2286 33.6608 74.6826 32.5863 70.6103 32.6684C69.9054 32.7574 69.1937 32.8532 68.4887 32.9422C66.456 33.4555 64.5191 34.5232 63.383 35.9536C59.9746 39.8205 60.9465 46.5893 65.094 49.3749C69.1799 52.4411 75.1822 53.1392 75.9487 56.0068C76.6948 59.5179 73.3686 60.6539 70.0628 60.2502C67.6263 59.7437 66.2712 58.5049 64.8065 56.2532C62.11 57.8137 62.11 57.8137 59.3382 59.4084C59.9952 60.8456 60.6864 61.4958 61.7884 62.7414C67.0036 68.0319 80.0552 67.7719 82.396 59.7643C82.4917 59.4904 83.1214 57.6562 82.6149 54.8296V54.8296ZM55.6491 33.0927H48.9145C48.9145 38.9102 48.8872 44.6866 48.8872 50.5041C48.8872 54.2068 49.0789 57.6015 48.4766 58.6418C47.491 60.6881 44.9382 60.4349 43.7747 60.0379C42.5906 59.4561 41.9884 58.628 41.2903 57.4577C41.0986 57.1224 40.9549 56.8623 40.9069 56.8418C39.0796 57.9573 37.259 59.0797 35.4316 60.1954C36.342 62.0638 37.6834 63.6859 39.4012 64.7398C41.9678 66.2797 45.4172 66.752 49.0241 65.9238C51.3716 65.2394 53.3974 63.8227 54.4583 61.6669C55.9913 58.8402 55.6628 55.4182 55.6491 51.6334C55.6834 45.46 55.6491 39.2866 55.6491 33.0927Z" fill="white"/>
</g>
<path d="M6.94772 86.72V99.56C6.94772 102.712 5.54772 104.288 2.74772 104.288C1.80372 104.288 1.05172 104.128 0.49172 103.808V101.72C1.05172 102.056 1.72372 102.224 2.50772 102.224C3.93172 102.224 4.64372 101.472 4.64372 99.968V86.72H6.94772ZM9.86353 94.664V92.6C10.9675 92.008 12.3755 91.712 14.0875 91.712C17.4475 91.712 19.1275 93.256 19.1275 96.344V104H17.0635L17.0395 102.584L17.1115 101.624H17.0635C16.9995 101.768 16.8795 101.96 16.7035 102.2C16.5435 102.44 16.2955 102.736 15.9595 103.088C15.6235 103.424 15.1835 103.712 14.6395 103.952C14.0955 104.176 13.5115 104.288 12.8875 104.288C11.7675 104.288 10.8555 103.976 10.1515 103.352C9.44753 102.712 9.09553 101.848 9.09553 100.76C9.09553 99.272 9.77553 98.2 11.1355 97.544C12.5115 96.872 14.4395 96.712 16.9195 97.064V96.464C16.9195 94.592 15.8715 93.656 13.7755 93.656C12.2875 93.656 10.9835 93.992 9.86353 94.664ZM13.2715 102.488C14.2635 102.488 15.1115 102.088 15.8155 101.288C16.5195 100.488 16.8715 99.6 16.8715 98.624C15.0155 98.32 13.6235 98.368 12.6955 98.768C11.7675 99.168 11.3035 99.808 11.3035 100.688C11.3035 101.216 11.4795 101.648 11.8315 101.984C12.1995 102.32 12.6795 102.488 13.2715 102.488ZM29.6913 92H32.0673L26.6913 104.288H25.4913L20.1153 92H22.4913C24.2513 96.192 25.4513 99.112 26.0913 100.76C26.7313 99.112 27.9313 96.192 29.6913 92ZM33.1267 94.664V92.6C34.2307 92.008 35.6387 91.712 37.3507 91.712C40.7107 91.712 42.3907 93.256 42.3907 96.344V104H40.3267L40.3027 102.584L40.3747 101.624H40.3267C40.2627 101.768 40.1427 101.96 39.9667 102.2C39.8067 102.44 39.5587 102.736 39.2227 103.088C38.8867 103.424 38.4467 103.712 37.9027 103.952C37.3587 104.176 36.7747 104.288 36.1507 104.288C35.0307 104.288 34.1187 103.976 33.4147 103.352C32.7107 102.712 32.3587 101.848 32.3587 100.76C32.3587 99.272 33.0387 98.2 34.3987 97.544C35.7747 96.872 37.7027 96.712 40.1827 97.064V96.464C40.1827 94.592 39.1347 93.656 37.0387 93.656C35.5507 93.656 34.2467 93.992 33.1267 94.664ZM36.5347 102.488C37.5267 102.488 38.3747 102.088 39.0787 101.288C39.7827 100.488 40.1347 99.6 40.1347 98.624C38.2787 98.32 36.8867 98.368 35.9587 98.768C35.0307 99.168 34.5667 99.808 34.5667 100.688C34.5667 101.216 34.7427 101.648 35.0947 101.984C35.4627 102.32 35.9427 102.488 36.5347 102.488ZM49.4504 104.288C47.6584 104.288 45.9944 103.952 44.4584 103.28V101C46.1224 101.816 47.7464 102.224 49.3304 102.224C50.4344 102.224 51.3384 102.008 52.0424 101.576C52.7464 101.128 53.0984 100.52 53.0984 99.752C53.0984 98.952 52.8184 98.296 52.2584 97.784C51.7144 97.272 50.7144 96.768 49.2584 96.272C47.5624 95.68 46.3224 94.992 45.5384 94.208C44.7704 93.408 44.3864 92.36 44.3864 91.064C44.3864 89.624 44.9224 88.496 45.9944 87.68C47.0664 86.848 48.4504 86.432 50.1464 86.432C51.6984 86.432 53.1304 86.728 54.4424 87.32V89.504C53.1624 88.832 51.7704 88.496 50.2664 88.496C49.1944 88.496 48.3224 88.72 47.6504 89.168C46.9784 89.616 46.6424 90.224 46.6424 90.992C46.6424 91.728 46.9144 92.368 47.4584 92.912C48.0184 93.44 49.0104 93.952 50.4344 94.448C52.1624 95.072 53.4104 95.776 54.1784 96.56C54.9624 97.328 55.3544 98.336 55.3544 99.584C55.3544 101.056 54.8264 102.208 53.7704 103.04C52.7144 103.872 51.2744 104.288 49.4504 104.288ZM60.0878 94.904C59.3198 95.704 58.9358 96.736 58.9358 98C58.9358 99.264 59.3118 100.296 60.0638 101.096C60.8318 101.896 61.8238 102.296 63.0398 102.296C64.3198 102.296 65.5358 101.944 66.6878 101.24V103.328C65.4878 103.968 64.2318 104.288 62.9198 104.288C61.0798 104.288 59.5758 103.696 58.4078 102.512C57.2398 101.328 56.6558 99.824 56.6558 98C56.6558 96.176 57.2398 94.672 58.4078 93.488C59.5758 92.304 61.0798 91.712 62.9198 91.712C64.2158 91.712 65.4478 92.024 66.6158 92.648V94.76C65.4958 94.056 64.3038 93.704 63.0398 93.704C61.8398 93.704 60.8558 94.104 60.0878 94.904ZM68.9868 104V92H71.0748L71.0988 93.68C71.0988 93.808 71.0908 93.944 71.0748 94.088C71.0748 94.232 71.0748 94.344 71.0748 94.424C71.0748 94.504 71.0748 94.552 71.0748 94.568H71.0988C71.8828 92.664 73.1148 91.712 74.7948 91.712C75.0828 91.712 75.3228 91.736 75.5148 91.784V93.944C75.3228 93.896 75.1148 93.872 74.8908 93.872C73.7868 93.872 72.8988 94.376 72.2268 95.384C71.5548 96.376 71.2188 97.504 71.2188 98.768V104H68.9868ZM77.552 92H79.784V104H77.552V92ZM77.264 88.52C77.264 88.104 77.392 87.776 77.648 87.536C77.904 87.28 78.24 87.152 78.656 87.152C79.072 87.152 79.408 87.28 79.664 87.536C79.92 87.792 80.048 88.12 80.048 88.52C80.048 88.92 79.92 89.248 79.664 89.504C79.408 89.744 79.072 89.864 78.656 89.864C78.24 89.864 77.904 89.744 77.648 89.504C77.392 89.248 77.264 88.92 77.264 88.52ZM83.4653 109.28V92H85.5293L85.5773 93.248L85.5053 94.136H85.5533C85.8893 93.48 86.4493 92.912 87.2333 92.432C88.0173 91.952 88.8733 91.712 89.8013 91.712C91.4013 91.712 92.7293 92.304 93.7853 93.488C94.8413 94.656 95.3693 96.16 95.3693 98C95.3693 99.856 94.8413 101.368 93.7853 102.536C92.7453 103.704 91.4333 104.288 89.8493 104.288C88.9213 104.288 88.0813 104.064 87.3293 103.616C86.5773 103.152 86.0253 102.592 85.6733 101.936H85.6253C85.6733 102.176 85.6973 102.504 85.6973 102.92V109.28H83.4653ZM89.4893 102.344C90.5933 102.344 91.4893 101.944 92.1773 101.144C92.8653 100.328 93.2093 99.28 93.2093 98C93.2093 96.736 92.8653 95.696 92.1773 94.88C91.4893 94.064 90.5933 93.656 89.4893 93.656C88.4813 93.656 87.6013 94.032 86.8493 94.784C86.0973 95.536 85.7213 96.608 85.7213 98C85.7213 99.392 86.0973 100.464 86.8493 101.216C87.6013 101.968 88.4813 102.344 89.4893 102.344ZM96.2506 92H98.2426V88.4H100.427V92H104.051V93.824H100.427V100.04C100.427 101.56 101.019 102.32 102.203 102.32C102.955 102.32 103.707 102.144 104.459 101.792V103.736C103.787 104.104 102.891 104.288 101.771 104.288C100.779 104.288 99.9386 104 99.2506 103.424C98.5626 102.848 98.2186 101.944 98.2186 100.712V93.824H96.2506V92Z" fill="#4D6264"/>
<defs>
<clipPath id="clip0_14050_4182">
<rect width="72" height="72" fill="white" transform="translate(16.5)"/>
</clipPath>
</defs>
</svg>
