<svg width="85" height="115" viewBox="0 0 85 115" fill="none" xmlns="http://www.w3.org/2000/svg">
<g clip-path="url(#clip0_14050_4121)">
<path d="M78.3314 16.4275C78.3581 16.5229 78.3717 16.6212 78.372 16.7201V32.0806C78.372 32.2778 78.3182 32.4714 78.216 32.642C78.1138 32.8126 77.9669 32.9541 77.7901 33.0522L64.4605 40.4749V55.1873C64.4605 55.5877 64.2405 55.9573 63.8815 56.1589L36.057 71.651C35.9934 71.686 35.9239 71.7084 35.8544 71.7322C35.8283 71.7406 35.8037 71.756 35.7762 71.763C35.5817 71.8126 35.3773 71.8126 35.1828 71.763C35.1509 71.7546 35.122 71.7378 35.0916 71.7266C35.0279 71.7042 34.9613 71.6846 34.9005 71.651L7.08188 56.1589C6.90515 56.0607 6.75831 55.9192 6.65616 55.7486C6.554 55.578 6.50014 55.3844 6.5 55.1873V9.10557C6.5 9.00477 6.51447 8.90677 6.54053 8.81157C6.54921 8.77937 6.56948 8.74997 6.58106 8.71777C6.60277 8.65897 6.62303 8.59878 6.65488 8.54418C6.67659 8.50778 6.70843 8.47838 6.73449 8.44478C6.76778 8.39998 6.79818 8.35378 6.83726 8.31458C6.87055 8.28238 6.91397 8.25858 6.95161 8.23058C6.99358 8.19698 7.03122 8.16058 7.07898 8.13398H7.08043L20.9905 0.387899C21.1666 0.289873 21.3663 0.238281 21.5695 0.238281C21.7727 0.238281 21.9723 0.289873 22.1484 0.387899L36.0585 8.13398H36.0614C36.1077 8.16198 36.1468 8.19698 36.1888 8.22918C36.2264 8.25718 36.2684 8.28238 36.3017 8.31318C36.3422 8.35378 36.3711 8.39998 36.4059 8.44478C36.4305 8.47838 36.4638 8.50778 36.484 8.54418C36.5173 8.60018 36.5361 8.65897 36.5593 8.71777C36.5709 8.74997 36.5912 8.77937 36.5998 8.81297C36.6265 8.90838 36.6401 9.00674 36.6404 9.10557V37.8877L48.2316 31.4324V16.7187C48.2316 16.6207 48.2461 16.5213 48.2721 16.4275C48.2823 16.3939 48.3011 16.3645 48.3126 16.3323C48.3358 16.2735 48.3561 16.2133 48.3879 16.1587C48.4096 16.1223 48.4415 16.0929 48.4661 16.0593C48.5008 16.0145 48.5298 15.9683 48.5703 15.9291C48.6036 15.8969 48.6456 15.8731 48.6832 15.8451C48.7266 15.8115 48.7643 15.7751 48.8106 15.7485H48.812L62.7235 8.00238C62.8996 7.90422 63.0993 7.85255 63.3025 7.85255C63.5057 7.85255 63.7054 7.90422 63.8815 8.00238L77.7915 15.7485C77.8407 15.7765 77.8784 15.8115 77.9218 15.8437C77.958 15.8717 78 15.8969 78.0332 15.9277C78.0738 15.9683 78.1027 16.0145 78.1375 16.0593C78.1635 16.0929 78.1954 16.1223 78.2156 16.1587C78.2489 16.2133 78.2677 16.2735 78.2909 16.3323C78.3039 16.3645 78.3227 16.3939 78.3314 16.4275V16.4275ZM76.0531 31.4324V18.659L71.1853 21.3694L64.4605 25.1143V37.8877L76.0546 31.4324H76.0531ZM62.1431 54.5391V41.7573L55.5282 45.4112L36.6389 55.8383V68.7405L62.1431 54.5391ZM8.81882 11.0445V54.5391L34.3201 68.7391V55.8397L20.9977 48.5472L20.9934 48.5444L20.9876 48.5416C20.9427 48.5164 20.9051 48.48 20.8631 48.4492C20.8269 48.4212 20.7849 48.3988 20.7531 48.368L20.7502 48.3638C20.7126 48.3288 20.6865 48.2854 20.6547 48.2462C20.6257 48.2084 20.591 48.1762 20.5678 48.137L20.5664 48.1328C20.5403 48.0908 20.5244 48.0404 20.5056 47.9928C20.4868 47.9508 20.4622 47.9116 20.4506 47.8668V47.8654C20.4361 47.8122 20.4332 47.7562 20.4274 47.7016C20.4216 47.6596 20.41 47.6176 20.41 47.5756V17.4998L13.6866 13.7535L8.81882 11.0459V11.0445ZM21.5709 2.65306L9.98113 9.10557L21.568 15.5581L33.1563 9.10417L21.568 2.65306H21.5709ZM27.5981 42.9221L34.3215 39.1785V11.0445L29.4537 13.7549L22.7289 17.4998V45.6338L27.5981 42.9221ZM63.3025 10.2676L51.7142 16.7201L63.3025 23.1726L74.8894 16.7187L63.3025 10.2676ZM62.1431 25.1143L55.4182 21.3694L50.5504 18.659V31.4324L57.2738 35.176L62.1431 37.8877V25.1143ZM35.4781 53.8993L52.4755 44.5138L60.9721 39.8239L49.3924 33.3756L36.0599 40.7997L23.9085 47.5658L35.4781 53.8993Z" fill="#007687"/>
</g>
<path d="M16.6996 104H6.95562V86.72H9.25963V102.056H16.6996V104ZM18.2952 94.664V92.6C19.3992 92.008 20.8072 91.712 22.5192 91.712C25.8792 91.712 27.5592 93.256 27.5592 96.344V104H25.4952L25.4712 102.584L25.5432 101.624H25.4952C25.4312 101.768 25.3112 101.96 25.1352 102.2C24.9752 102.44 24.7272 102.736 24.3912 103.088C24.0552 103.424 23.6152 103.712 23.0712 103.952C22.5272 104.176 21.9432 104.288 21.3192 104.288C20.1992 104.288 19.2872 103.976 18.5832 103.352C17.8792 102.712 17.5272 101.848 17.5272 100.76C17.5272 99.272 18.2072 98.2 19.5672 97.544C20.9432 96.872 22.8712 96.712 25.3512 97.064V96.464C25.3512 94.592 24.3032 93.656 22.2072 93.656C20.7192 93.656 19.4152 93.992 18.2952 94.664ZM21.7032 102.488C22.6952 102.488 23.5432 102.088 24.2472 101.288C24.9512 100.488 25.3032 99.6 25.3032 98.624C23.4472 98.32 22.0552 98.368 21.1272 98.768C20.1992 99.168 19.7352 99.808 19.7352 100.688C19.7352 101.216 19.9112 101.648 20.2632 101.984C20.6312 102.32 21.1112 102.488 21.7032 102.488ZM30.611 104V92H32.699L32.723 93.68C32.723 93.808 32.715 93.944 32.699 94.088C32.699 94.232 32.699 94.344 32.699 94.424C32.699 94.504 32.699 94.552 32.699 94.568H32.723C33.507 92.664 34.739 91.712 36.419 91.712C36.707 91.712 36.947 91.736 37.139 91.784V93.944C36.947 93.896 36.739 93.872 36.515 93.872C35.411 93.872 34.523 94.376 33.851 95.384C33.179 96.376 32.843 97.504 32.843 98.768V104H30.611ZM38.5818 94.664V92.6C39.6858 92.008 41.0938 91.712 42.8058 91.712C46.1658 91.712 47.8458 93.256 47.8458 96.344V104H45.7818L45.7578 102.584L45.8298 101.624H45.7818C45.7178 101.768 45.5978 101.96 45.4218 102.2C45.2618 102.44 45.0138 102.736 44.6778 103.088C44.3418 103.424 43.9018 103.712 43.3578 103.952C42.8138 104.176 42.2298 104.288 41.6058 104.288C40.4858 104.288 39.5738 103.976 38.8698 103.352C38.1658 102.712 37.8138 101.848 37.8138 100.76C37.8138 99.272 38.4938 98.2 39.8538 97.544C41.2298 96.872 43.1578 96.712 45.6378 97.064V96.464C45.6378 94.592 44.5898 93.656 42.4938 93.656C41.0058 93.656 39.7018 93.992 38.5818 94.664ZM41.9898 102.488C42.9818 102.488 43.8298 102.088 44.5338 101.288C45.2378 100.488 45.5898 99.6 45.5898 98.624C43.7338 98.32 42.3418 98.368 41.4138 98.768C40.4858 99.168 40.0218 99.808 40.0218 100.688C40.0218 101.216 40.1978 101.648 40.5498 101.984C40.9178 102.32 41.3978 102.488 41.9898 102.488ZM58.4096 92H60.7856L55.4096 104.288H54.2096L48.8336 92H51.2096C52.9696 96.192 54.1696 99.112 54.8096 100.76C55.4496 99.112 56.6496 96.192 58.4096 92ZM67.0769 91.712C68.7729 91.712 70.1009 92.256 71.0609 93.344C72.0209 94.416 72.5009 95.736 72.5009 97.304C72.5009 97.48 72.4929 97.704 72.4769 97.976C72.4609 98.248 72.4529 98.416 72.4529 98.48H63.5249V98.504C63.5569 99.688 63.9489 100.624 64.7009 101.312C65.4529 102 66.4529 102.344 67.7009 102.344C69.4289 102.344 70.8769 101.968 72.0449 101.216V103.256C70.8289 103.944 69.3329 104.288 67.5569 104.288C65.6689 104.288 64.1329 103.704 62.9489 102.536C61.7809 101.368 61.1969 99.856 61.1969 98C61.1969 96.192 61.7569 94.696 62.8769 93.512C64.0129 92.312 65.4129 91.712 67.0769 91.712ZM70.2929 96.896C70.3089 95.984 70.0289 95.208 69.4529 94.568C68.8769 93.912 68.0769 93.584 67.0529 93.584C66.0769 93.584 65.2689 93.904 64.6289 94.544C64.0049 95.184 63.6449 95.968 63.5489 96.896H70.2929ZM75.0787 100.928V86.72H77.3107V100.472C77.3107 101.112 77.4147 101.576 77.6227 101.864C77.8467 102.152 78.2067 102.296 78.7027 102.296C79.1187 102.296 79.4707 102.248 79.7587 102.152V104.072C79.3267 104.216 78.7907 104.288 78.1507 104.288C77.2067 104.288 76.4547 104.016 75.8947 103.472C75.3507 102.928 75.0787 102.08 75.0787 100.928Z" fill="#4D6264"/>
<defs>
<clipPath id="clip0_14050_4121">
<rect width="72" height="72" fill="white" transform="translate(6.5)"/>
</clipPath>
</defs>
</svg>
