<svg width="73" height="115" viewBox="0 0 73 115" fill="none" xmlns="http://www.w3.org/2000/svg">
<g clip-path="url(#clip0_14050_4187)">
<path d="M34.1422 0.0193755C33.9874 0.0334496 33.4947 0.0827093 33.0513 0.117895C22.8249 1.03975 13.246 6.55683 7.17918 15.0365C3.80088 19.7514 1.64018 25.0996 0.823754 30.7644C0.535191 32.7418 0.5 33.3259 0.5 36.007C0.5 38.6882 0.535191 39.2723 0.823754 41.2497C2.78035 54.7679 12.4015 66.1258 25.4501 70.334C27.7868 71.0869 30.2501 71.6006 33.0513 71.9103C34.1422 72.0299 38.8578 72.0299 39.9487 71.9103C44.7839 71.3755 48.8801 70.1792 52.9199 68.1173C53.5393 67.8006 53.6589 67.7162 53.5745 67.6458C53.5182 67.6036 50.8789 64.0639 47.7117 59.7854L41.9545 52.0094L34.7405 41.3341C30.771 35.4652 27.5053 30.6659 27.4771 30.6659C27.449 30.6589 27.4208 35.4019 27.4067 41.1934C27.3856 51.3338 27.3786 51.742 27.2519 51.9812C27.0689 52.3261 26.9282 52.4668 26.6326 52.6216C26.4073 52.7342 26.2103 52.7553 25.1475 52.7553H23.9299L23.6062 52.5512C23.395 52.4175 23.2402 52.2416 23.1346 52.0375L22.9868 51.7209L23.0009 37.6115L23.022 23.4951L23.2402 23.2207C23.3528 23.0729 23.5921 22.8829 23.761 22.7914C24.0496 22.6507 24.1622 22.6366 25.3798 22.6366C26.8155 22.6366 27.0548 22.6929 27.4279 23.101C27.5334 23.2136 31.4396 29.0966 36.1129 36.183C40.7862 43.2693 47.1768 52.9453 50.3158 57.6954L56.0167 66.3299L56.3053 66.1399C58.8601 64.4791 61.5628 62.1146 63.7023 59.6517C68.256 54.4231 71.1909 48.0475 72.1762 41.2497C72.4648 39.2723 72.5 38.6882 72.5 36.007C72.5 33.3259 72.4648 32.7418 72.1762 30.7644C70.2196 17.2462 60.5985 5.88831 47.5499 1.68013C45.2484 0.934197 42.7991 0.42049 40.0543 0.110858C39.3786 0.0404867 34.7264 -0.0369213 34.1422 0.0193755ZM48.8801 21.7921C49.2179 21.961 49.4924 22.2847 49.5909 22.6225C49.6472 22.8055 49.6613 26.7181 49.6472 35.5356L49.6261 48.1882L47.395 44.7682L45.1569 41.3482V32.1507C45.1569 26.2044 45.185 22.8618 45.2273 22.6999C45.3399 22.3058 45.5862 21.9962 45.924 21.8132C46.2126 21.6655 46.3182 21.6514 47.4232 21.6514C48.4648 21.6514 48.6478 21.6655 48.8801 21.7921Z" fill="#007687"/>
</g>
<path d="M16.2863 104.288H16.2623L5.53428 92.648L4.98228 92.048V104H2.67828V86.432H2.70228L13.4303 98.072L13.9823 98.672V86.72H16.2863V104.288ZM24.8983 91.712C26.5943 91.712 27.9223 92.256 28.8823 93.344C29.8423 94.416 30.3223 95.736 30.3223 97.304C30.3223 97.48 30.3143 97.704 30.2983 97.976C30.2823 98.248 30.2743 98.416 30.2743 98.48H21.3463V98.504C21.3783 99.688 21.7703 100.624 22.5223 101.312C23.2743 102 24.2743 102.344 25.5223 102.344C27.2503 102.344 28.6983 101.968 29.8663 101.216V103.256C28.6503 103.944 27.1543 104.288 25.3783 104.288C23.4903 104.288 21.9543 103.704 20.7703 102.536C19.6023 101.368 19.0183 99.856 19.0183 98C19.0183 96.192 19.5783 94.696 20.6983 93.512C21.8343 92.312 23.2343 91.712 24.8983 91.712ZM28.1143 96.896C28.1303 95.984 27.8503 95.208 27.2743 94.568C26.6983 93.912 25.8983 93.584 24.8743 93.584C23.8983 93.584 23.0903 93.904 22.4503 94.544C21.8263 95.184 21.4663 95.968 21.3703 96.896H28.1143ZM42.7345 92L38.5345 97.808L42.9505 104H40.4305L37.2145 99.44L34.0225 104H31.5025L35.8465 97.952L31.6705 92H34.2145L37.1665 96.416L40.1425 92H42.7345ZM43.6703 92H45.6623V88.4H47.8463V92H51.4703V93.824H47.8463V100.04C47.8463 101.56 48.4383 102.32 49.6223 102.32C50.3743 102.32 51.1263 102.144 51.8783 101.792V103.736C51.2063 104.104 50.3103 104.288 49.1903 104.288C48.1983 104.288 47.3583 104 46.6703 103.424C45.9823 102.848 45.6383 101.944 45.6383 100.712V93.824H43.6703V92ZM52.9967 102.944C52.9967 102.528 53.1247 102.2 53.3807 101.96C53.6367 101.704 53.9727 101.576 54.3887 101.576C54.8047 101.576 55.1407 101.704 55.3967 101.96C55.6527 102.216 55.7807 102.544 55.7807 102.944C55.7807 103.344 55.6527 103.672 55.3967 103.928C55.1407 104.168 54.8047 104.288 54.3887 104.288C53.9727 104.288 53.6367 104.168 53.3807 103.928C53.1247 103.672 52.9967 103.344 52.9967 102.944ZM60.558 92V105.392C60.558 106.72 60.206 107.744 59.502 108.464C58.814 109.2 57.83 109.568 56.55 109.568C55.99 109.568 55.574 109.512 55.302 109.4V107.456C55.526 107.52 55.798 107.552 56.118 107.552C56.806 107.552 57.342 107.336 57.726 106.904C58.126 106.472 58.326 105.864 58.326 105.08V92H60.558ZM58.038 88.52C58.038 88.104 58.166 87.776 58.422 87.536C58.678 87.28 59.014 87.152 59.43 87.152C59.846 87.152 60.182 87.28 60.438 87.536C60.694 87.792 60.822 88.12 60.822 88.52C60.822 88.92 60.694 89.248 60.438 89.504C60.182 89.744 59.846 89.864 59.43 89.864C59.014 89.864 58.678 89.744 58.422 89.504C58.166 89.248 58.038 88.92 58.038 88.52ZM69.4954 100.88C69.4954 100.4 69.2954 100.024 68.8954 99.752C68.4954 99.48 67.8074 99.184 66.8314 98.864C65.6314 98.48 64.7274 98.008 64.1194 97.448C63.5114 96.888 63.2074 96.104 63.2074 95.096C63.2074 94.104 63.6074 93.296 64.4074 92.672C65.2234 92.032 66.2554 91.712 67.5034 91.712C68.7354 91.712 69.8634 91.952 70.8874 92.432V94.448C69.8314 93.888 68.7834 93.608 67.7434 93.608C67.0234 93.608 66.4314 93.744 65.9674 94.016C65.5194 94.272 65.2954 94.656 65.2954 95.168C65.2954 95.616 65.4874 95.984 65.8714 96.272C66.2554 96.544 66.8874 96.824 67.7674 97.112C69.1114 97.56 70.0794 98.064 70.6714 98.624C71.2634 99.168 71.5594 99.928 71.5594 100.904C71.5594 101.976 71.1594 102.808 70.3594 103.4C69.5754 103.992 68.5194 104.288 67.1914 104.288C65.6874 104.288 64.3834 104.024 63.2794 103.496V101.456C64.6234 102.112 65.9034 102.44 67.1194 102.44C67.8074 102.44 68.3754 102.312 68.8234 102.056C69.2714 101.8 69.4954 101.408 69.4954 100.88Z" fill="#4D6264"/>
<defs>
<clipPath id="clip0_14050_4187">
<rect width="72" height="72" fill="white" transform="translate(0.5)"/>
</clipPath>
</defs>
</svg>
