<svg width="89" height="115" viewBox="0 0 89 115" fill="none" xmlns="http://www.w3.org/2000/svg">
<g clip-path="url(#clip0_14050_4155)">
<path d="M8.5 36.0002C8.5 46.4589 24.6181 54.9375 44.4999 54.9375C64.3818 54.9375 80.5 46.4589 80.5 36.0002C80.5 25.5416 64.3818 17.0628 44.4999 17.0628C24.6181 17.0628 8.5 25.5416 8.5 36.0002Z" fill="url(#paint0_radial_14050_4155)"/>
<path d="M44.4999 53.5234C63.6052 53.5234 79.0936 45.6744 79.0936 35.9921C79.0936 26.3099 63.6052 18.4607 44.4999 18.4607C25.3946 18.4607 9.90625 26.3099 9.90625 35.9921C9.90625 45.6744 25.3946 53.5234 44.4999 53.5234Z" fill="#007687"/>
<path d="M28.0471 38.1706C29.6181 38.1706 30.7909 37.8809 31.5329 37.3098C32.2671 36.7445 32.7741 35.7653 33.0398 34.3992C33.2876 33.1224 33.1932 32.2309 32.7594 31.7498C32.3158 31.2584 31.3566 31.0091 29.9087 31.0091H27.3982L26.0064 38.1706H28.0471ZM19.8358 46.9922C19.7193 46.9922 19.6086 46.9401 19.5345 46.85C19.4603 46.76 19.4302 46.6415 19.4525 46.5271L23.141 27.5491C23.1767 27.3657 23.3375 27.2331 23.5245 27.2331H31.4742C33.9727 27.2331 35.8323 27.9115 37.0012 29.2496C38.1763 30.5948 38.5392 32.4752 38.0797 34.8383C37.8927 35.8011 37.5711 36.6952 37.1238 37.4957C36.676 38.2972 36.0842 39.0387 35.3646 39.7001C34.5031 40.5064 33.5281 41.091 32.4693 41.435C31.4272 41.7745 30.0889 41.9466 28.4917 41.9466H25.2727L24.3534 46.676C24.3177 46.8596 24.157 46.9922 23.9701 46.9922H19.8358Z" fill="#003B44"/>
<path d="M27.7124 31.3959H29.9009C31.6485 31.3959 32.2555 31.7793 32.4617 32.0078C32.8039 32.3873 32.8685 33.1873 32.6486 34.3212C32.4015 35.5908 31.9434 36.4909 31.2869 36.9964C30.6147 37.5138 29.522 37.7761 28.0394 37.7761H26.4724L27.7124 31.3959ZM31.4664 26.8386H23.5166C23.1426 26.8386 22.8211 27.1037 22.7498 27.4707L19.0612 46.4487C19.0167 46.6777 19.0769 46.9146 19.2252 47.0947C19.3736 47.2747 19.5947 47.3789 19.828 47.3789H23.9621C24.3362 47.3789 24.6577 47.1138 24.7291 46.7467L25.5869 42.3333H28.4839C30.1222 42.3333 31.5013 42.1547 32.5827 41.8025C33.6948 41.4412 34.718 40.8285 35.6236 39.9817C36.3725 39.2926 36.9895 38.5192 37.4569 37.6826C37.9245 36.8457 38.2604 35.9125 38.4553 34.9089C38.9391 32.4214 38.5461 30.4295 37.2875 28.9888C36.0412 27.562 34.0826 26.8386 31.4664 26.8386ZM25.5246 38.5573H28.0394C29.7061 38.5573 30.9477 38.2434 31.7634 37.6154C32.5793 36.9873 33.1296 35.939 33.4155 34.4699C33.6891 33.0595 33.5645 32.0642 33.0417 31.4844C32.5182 30.9046 31.4715 30.6146 29.9009 30.6146H27.0684L25.5246 38.5573M31.4664 27.6198C33.858 27.6198 35.6026 28.2474 36.6992 29.5028C37.7957 30.7581 38.1259 32.5103 37.6884 34.7599C37.5083 35.6866 37.2038 36.5339 36.775 37.3015C36.3457 38.0695 35.7852 38.7719 35.0925 39.4087C34.2669 40.1813 33.3499 40.7318 32.3408 41.0596C31.3317 41.3884 30.0464 41.5521 28.4839 41.5521H24.9427L23.9621 46.5977H19.828L23.5166 27.6198H31.4664" fill="white"/>
<path d="M47.5612 41.9453C47.4445 41.9453 47.334 41.8932 47.2599 41.8031C47.1856 41.7132 47.1555 41.5948 47.1777 41.4802L48.8094 33.0832C48.9646 32.2847 48.9263 31.7115 48.7017 31.4693C48.5642 31.3212 48.1512 31.0729 46.93 31.0729H43.974L41.9225 41.6292C41.8869 41.8128 41.7261 41.9453 41.5391 41.9453H37.4375C37.3209 41.9453 37.2103 41.8932 37.1361 41.8031C37.0619 41.7132 37.0318 41.5947 37.0541 41.4802L40.7426 22.5022C40.7783 22.3188 40.9391 22.1862 41.1261 22.1862H45.2276C45.3443 22.1862 45.4548 22.2383 45.529 22.3283C45.6033 22.4184 45.6333 22.5368 45.6111 22.6513L44.721 27.2318H47.9009C50.3234 27.2318 51.9661 27.6589 52.9229 28.5375C53.8982 29.4339 54.2025 30.8671 53.8275 32.7978L52.1113 41.6292C52.0756 41.8128 51.915 41.9453 51.7279 41.9453H47.5612Z" fill="#003B44"/>
<path d="M45.2315 21.7956H41.13C40.7559 21.7956 40.4344 22.0607 40.3631 22.4278L36.6745 41.4057C36.63 41.6348 36.6902 41.8716 36.8386 42.0517C36.987 42.2318 37.2081 42.3359 37.4415 42.3359H41.543C41.917 42.3359 42.2386 42.0708 42.3099 41.7038L44.2999 31.4636H46.9339C48.153 31.4636 48.4089 31.724 48.4192 31.7352C48.4931 31.8147 48.5904 32.1832 48.4298 33.0087L46.7982 41.4057C46.7537 41.6348 46.8138 41.8716 46.9623 42.0517C47.1107 42.2318 47.3318 42.3359 47.5651 42.3359H51.7318C52.1057 42.3359 52.4274 42.0708 52.4987 41.7038L54.2147 32.8724C54.6175 30.7994 54.2729 29.2443 53.1912 28.25C52.1589 27.302 50.4297 26.8412 47.9048 26.8412H45.1986L45.9985 22.7259C46.0429 22.4969 45.9828 22.2599 45.8344 22.08C45.686 21.8999 45.4649 21.7956 45.2315 21.7956ZM45.2315 22.5769L44.2509 27.6224H47.9048C50.2039 27.6224 51.7897 28.0237 52.6625 28.8253C53.5353 29.6274 53.7968 30.927 53.4479 32.7235L51.7318 41.5547H47.5651L49.1968 33.1578C49.3824 32.2026 49.3142 31.5511 48.9918 31.2037C48.6693 30.8563 47.9832 30.6823 46.9339 30.6823H43.6558L41.543 41.5547H37.4415L41.13 22.5769H45.2315Z" fill="white"/>
<path d="M60.3088 38.1706C61.8798 38.1706 63.0526 37.8809 63.7946 37.3098C64.5288 36.7447 65.0358 35.7654 65.3017 34.3992C65.5495 33.1224 65.4551 32.2309 65.0211 31.7498C64.5775 31.2584 63.6183 31.0091 62.1704 31.0091H59.6599L58.2681 38.1706H60.3088ZM52.0977 46.9922C51.9811 46.9922 51.8705 46.9401 51.7964 46.85C51.7221 46.76 51.6919 46.6415 51.7142 46.5271L55.4027 27.5491C55.4385 27.3657 55.5992 27.2331 55.7863 27.2331H63.7359C66.2345 27.2331 68.094 27.9115 69.263 29.2496C70.4381 30.5947 70.8009 32.475 70.3415 34.8383C70.1543 35.8011 69.8328 36.6952 69.3855 37.4957C68.9377 38.2972 68.3459 39.0387 67.6263 39.7001C66.7648 40.5064 65.7898 41.091 64.731 41.435C63.6889 41.7745 62.3506 41.9466 60.7534 41.9466H57.5342L56.6154 46.676C56.5796 46.8596 56.4189 46.9922 56.2318 46.9922H52.0977Z" fill="#003B44"/>
<path d="M59.9857 31.3959H62.1742C63.9218 31.3959 64.5288 31.7793 64.735 32.0078C65.0774 32.3873 65.1419 33.1873 64.9219 34.3211C64.6748 35.5908 64.2166 36.4909 63.5602 36.9964C62.888 37.5138 61.7953 37.7761 60.3127 37.7761H58.7459L59.9857 31.3959ZM63.7397 26.8386H55.79C55.4161 26.8386 55.0946 27.1037 55.0232 27.4707L51.3347 46.4487C51.2902 46.6777 51.3503 46.9146 51.4986 47.0947C51.6471 47.2747 51.8681 47.3789 52.1015 47.3789H56.2356C56.6095 47.3789 56.9312 47.1138 57.0025 46.7467L57.8602 42.3333H60.7572C62.3955 42.3333 63.7746 42.1547 64.856 41.8025C65.9681 41.4412 66.9916 40.8284 67.8971 39.9814C68.6461 39.2925 69.2628 38.5192 69.7302 37.6826C70.1978 36.8457 70.5337 35.9125 70.7287 34.9089C71.2124 32.4213 70.8194 30.4293 69.5608 28.9887C68.3145 27.562 66.356 26.8386 63.7397 26.8386ZM57.7981 38.5573H60.3127C61.9795 38.5573 63.221 38.2434 64.0367 37.6154C64.8528 36.9873 65.4029 35.939 65.6888 34.4699C65.9625 33.0595 65.8379 32.0642 65.315 31.4844C64.7916 30.9046 63.7448 30.6146 62.1742 30.6146H59.3417L57.7981 38.5573ZM63.7397 27.6198C66.1313 27.6198 67.8759 28.2474 68.9725 29.5028C70.0692 30.7581 70.3992 32.5103 69.9617 34.7599C69.7817 35.6866 69.4771 36.5339 69.0483 37.3015C68.619 38.0695 68.0585 38.7719 67.3658 39.4087C66.5403 40.1813 65.6232 40.7318 64.6141 41.0596C63.605 41.3884 62.3197 41.5521 60.7572 41.5521H57.2161L56.2356 46.5977H52.1015L55.79 27.6198H63.7397" fill="white"/>
</g>
<path d="M30.7376 97.28H27.7376V104H25.4336V86.72H30.7376C32.5776 86.72 34.0176 87.192 35.0576 88.136C36.0976 89.064 36.6176 90.352 36.6176 92C36.6176 93.648 36.0976 94.944 35.0576 95.888C34.0176 96.816 32.5776 97.28 30.7376 97.28ZM30.6656 88.664H27.7376V95.336H30.8576C31.9296 95.336 32.7616 95.04 33.3536 94.448C33.9616 93.856 34.2656 93.04 34.2656 92C34.2656 90.96 33.9456 90.144 33.3056 89.552C32.6656 88.96 31.7856 88.664 30.6656 88.664ZM38.6801 104V86.72H40.8881V93.392C40.8881 93.6 40.8721 93.848 40.8401 94.136C40.8241 94.408 40.8161 94.56 40.8161 94.592H40.8401C41.1761 93.888 41.7281 93.232 42.4961 92.624C43.2641 92.016 44.2161 91.712 45.3521 91.712C48.0881 91.712 49.4561 93.296 49.4561 96.464V104H47.2241V96.92C47.2241 96.456 47.1921 96.056 47.1281 95.72C47.0801 95.384 46.9761 95.056 46.8161 94.736C46.6721 94.416 46.4401 94.176 46.1201 94.016C45.8161 93.856 45.4241 93.776 44.9441 93.776C43.7761 93.776 42.8081 94.192 42.0401 95.024C41.2881 95.84 40.9121 96.864 40.9121 98.096V104H38.6801ZM52.7732 109.28V92H54.8372L54.8852 93.248L54.8132 94.136H54.8612C55.1972 93.48 55.7572 92.912 56.5412 92.432C57.3252 91.952 58.1812 91.712 59.1092 91.712C60.7092 91.712 62.0372 92.304 63.0932 93.488C64.1492 94.656 64.6772 96.16 64.6772 98C64.6772 99.856 64.1492 101.368 63.0932 102.536C62.0532 103.704 60.7412 104.288 59.1572 104.288C58.2292 104.288 57.3892 104.064 56.6372 103.616C55.8852 103.152 55.3332 102.592 54.9812 101.936H54.9332C54.9812 102.176 55.0052 102.504 55.0052 102.92V109.28H52.7732ZM58.7972 102.344C59.9012 102.344 60.7972 101.944 61.4852 101.144C62.1732 100.328 62.5172 99.28 62.5172 98C62.5172 96.736 62.1732 95.696 61.4852 94.88C60.7972 94.064 59.9012 93.656 58.7972 93.656C57.7892 93.656 56.9092 94.032 56.1572 94.784C55.4052 95.536 55.0292 96.608 55.0292 98C55.0292 99.392 55.4052 100.464 56.1572 101.216C56.9092 101.968 57.7892 102.344 58.7972 102.344Z" fill="#4D6264"/>
<defs>
<radialGradient id="paint0_radial_14050_4155" cx="0" cy="0" r="1" gradientUnits="userSpaceOnUse" gradientTransform="translate(30.1145 23.7206) scale(47.2731)">
<stop stop-color="#A6CFD5"/>
<stop offset="0.3" stop-color="#A3D5DC"/>
<stop offset="0.75" stop-color="#007687"/>
<stop offset="1" stop-color="#007687"/>
</radialGradient>
<clipPath id="clip0_14050_4155">
<rect width="72" height="72" fill="white" transform="translate(8.5)"/>
</clipPath>
</defs>
</svg>
