<svg width="85" height="115" viewBox="0 0 85 115" fill="none" xmlns="http://www.w3.org/2000/svg">
<g clip-path="url(#clip0_14050_4125)">
<path d="M42.192 0.0195312C23.9597 0.0195312 25.0981 7.95788 25.0981 7.95788L25.1184 16.1823H42.5171V18.6514H18.2079C18.2079 18.6514 6.54102 17.323 6.54102 35.7931C6.54102 54.2638 16.7241 53.6087 16.7241 53.6087H22.8014V45.0376C22.8014 45.0376 22.4737 34.8136 32.8219 34.8136H50.0784C50.0784 34.8136 59.7735 34.9709 59.7735 25.4059V9.59073C59.7735 9.59073 61.246 0.0195312 42.192 0.0195312ZM32.5983 5.55026C33.0095 5.54989 33.4167 5.63092 33.7966 5.78872C34.1765 5.94652 34.5217 6.17798 34.8124 6.46988C35.1031 6.76177 35.3337 7.10835 35.4909 7.48979C35.648 7.87124 35.7287 8.28005 35.7284 8.69285C35.7287 9.10564 35.648 9.51446 35.4909 9.89591C35.3337 10.2773 35.1031 10.6239 34.8124 10.9158C34.5217 11.2077 34.1765 11.4392 33.7966 11.597C33.4167 11.7548 33.0095 11.8358 32.5983 11.8354C32.1872 11.8358 31.78 11.7548 31.4001 11.597C31.0202 11.4392 30.675 11.2077 30.3843 10.9158C30.0935 10.6239 29.863 10.2773 29.7058 9.89591C29.5487 9.51446 29.468 9.10564 29.4683 8.69285C29.468 8.28005 29.5487 7.87124 29.7058 7.48979C29.863 7.10835 30.0935 6.76177 30.3843 6.46988C30.675 6.17798 31.0202 5.94652 31.4001 5.78872C31.78 5.63092 32.1872 5.54989 32.5983 5.55026V5.55026Z" fill="url(#paint0_linear_14050_4125)"/>
<path d="M42.7098 71.7522C60.942 71.7522 59.8036 63.8139 59.8036 63.8139L59.7834 55.5898H42.3844V53.1206H66.6936C66.6936 53.1206 78.3605 54.4491 78.3605 35.9784C78.3605 17.508 68.1774 18.163 68.1774 18.163H62.1001V26.7339C62.1001 26.7339 62.4277 36.9579 52.0796 36.9579H34.8231C34.8231 36.9579 25.1279 36.8006 25.1279 46.3659V62.1813C25.1279 62.1813 23.6557 71.7522 42.7095 71.7522H42.7098ZM52.3034 66.222C51.8923 66.2224 51.4851 66.1414 51.1052 65.9836C50.7252 65.8258 50.3801 65.5943 50.0893 65.3024C49.7986 65.0105 49.5681 64.664 49.4109 64.2825C49.2537 63.9011 49.173 63.4922 49.1734 63.0795C49.173 62.6666 49.2537 62.2578 49.4108 61.8763C49.568 61.4948 49.7985 61.1482 50.0892 60.8563C50.38 60.5644 50.7252 60.3329 51.1051 60.1751C51.485 60.0173 51.8922 59.9362 52.3034 59.9366C52.7146 59.9362 53.1217 60.0172 53.5017 60.175C53.8816 60.3328 54.2268 60.5643 54.5175 60.8562C54.8082 61.1481 55.0388 61.4947 55.1959 61.8761C55.3531 62.2576 55.4338 62.6664 55.4334 63.0792C55.4338 63.492 55.3531 63.9008 55.1959 64.2822C55.0388 64.6637 54.8082 65.0103 54.5175 65.3021C54.2268 65.594 53.8816 65.8255 53.5017 65.9833C53.1217 66.1411 52.7146 66.2221 52.3034 66.2218V66.222Z" fill="url(#paint1_linear_14050_4125)"/>
</g>
<path d="M11.4426 97.28H8.44259V104H6.13859V86.72H11.4426C13.2826 86.72 14.7226 87.192 15.7626 88.136C16.8026 89.064 17.3226 90.352 17.3226 92C17.3226 93.648 16.8026 94.944 15.7626 95.888C14.7226 96.816 13.2826 97.28 11.4426 97.28ZM11.3706 88.664H8.44259V95.336H11.5626C12.6346 95.336 13.4666 95.04 14.0586 94.448C14.6666 93.856 14.9706 93.04 14.9706 92C14.9706 90.96 14.6506 90.144 14.0106 89.552C13.3706 88.96 12.4906 88.664 11.3706 88.664ZM17.8802 109.352V107.504C18.2322 107.6 18.6642 107.648 19.1762 107.648C20.0562 107.648 20.7762 107.328 21.3362 106.688C21.8962 106.064 22.4402 105.12 22.9682 103.856L17.9522 92H20.4242L22.1042 96.344C22.2482 96.728 22.4562 97.28 22.7282 98C23.0162 98.72 23.2722 99.376 23.4962 99.968C23.7202 100.544 23.9282 101.088 24.1202 101.6C24.1522 101.536 24.8322 99.784 26.1602 96.344L27.8162 92H30.2882L25.5602 103.448C25.1122 104.536 24.7042 105.416 24.3362 106.088C23.9842 106.76 23.5682 107.384 23.0882 107.96C22.6082 108.536 22.0642 108.944 21.4562 109.184C20.8642 109.44 20.1842 109.568 19.4162 109.568C18.7122 109.568 18.2002 109.496 17.8802 109.352ZM30.5068 92H32.4988V88.4H34.6828V92H38.3068V93.824H34.6828V100.04C34.6828 101.56 35.2748 102.32 36.4588 102.32C37.2108 102.32 37.9628 102.144 38.7148 101.792V103.736C38.0428 104.104 37.1468 104.288 36.0268 104.288C35.0348 104.288 34.1948 104 33.5068 103.424C32.8188 102.848 32.4748 101.944 32.4748 100.712V93.824H30.5068V92ZM40.4685 104V86.72H42.6765V93.392C42.6765 93.6 42.6605 93.848 42.6285 94.136C42.6125 94.408 42.6045 94.56 42.6045 94.592H42.6285C42.9645 93.888 43.5165 93.232 44.2845 92.624C45.0525 92.016 46.0045 91.712 47.1405 91.712C49.8765 91.712 51.2445 93.296 51.2445 96.464V104H49.0125V96.92C49.0125 96.456 48.9805 96.056 48.9165 95.72C48.8685 95.384 48.7645 95.056 48.6045 94.736C48.4605 94.416 48.2285 94.176 47.9085 94.016C47.6045 93.856 47.2125 93.776 46.7325 93.776C45.5645 93.776 44.5965 94.192 43.8285 95.024C43.0765 95.84 42.7005 96.864 42.7005 98.096V104H40.4685ZM59.6976 91.712C61.4896 91.712 62.9696 92.312 64.1376 93.512C65.3056 94.696 65.8896 96.192 65.8896 98C65.8896 99.808 65.3056 101.312 64.1376 102.512C62.9696 103.696 61.4896 104.288 59.6976 104.288C57.9216 104.288 56.4496 103.696 55.2816 102.512C54.1136 101.312 53.5296 99.808 53.5296 98C53.5296 96.192 54.1136 94.696 55.2816 93.512C56.4496 92.312 57.9216 91.712 59.6976 91.712ZM59.6976 102.344C60.8656 102.344 61.8256 101.936 62.5776 101.12C63.3456 100.304 63.7296 99.264 63.7296 98C63.7296 96.736 63.3456 95.696 62.5776 94.88C61.8256 94.064 60.8656 93.656 59.6976 93.656C58.5456 93.656 57.5856 94.064 56.8176 94.88C56.0656 95.696 55.6896 96.736 55.6896 98C55.6896 99.264 56.0656 100.304 56.8176 101.12C57.5856 101.936 58.5456 102.344 59.6976 102.344ZM68.5363 92H70.6243L70.6723 93.68C70.6723 94.16 70.6403 94.464 70.5763 94.592H70.6243C70.9123 93.904 71.4643 93.256 72.2803 92.648C73.0963 92.024 74.0723 91.712 75.2083 91.712C77.9443 91.712 79.3123 93.296 79.3123 96.464V104H77.0803V96.92C77.0803 96.456 77.0483 96.056 76.9843 95.72C76.9363 95.384 76.8323 95.056 76.6723 94.736C76.5283 94.416 76.2963 94.176 75.9763 94.016C75.6723 93.856 75.2803 93.776 74.8003 93.776C73.6323 93.776 72.6643 94.192 71.8963 95.024C71.1443 95.84 70.7683 96.864 70.7683 98.096V104H68.5363V92Z" fill="#4D6264"/>
<defs>
<linearGradient id="paint0_linear_14050_4125" x1="13.4428" y1="6.47148" x2="49.1756" y2="41.7062" gradientUnits="userSpaceOnUse">
<stop stop-color="#007687"/>
<stop offset="1" stop-color="#007687"/>
</linearGradient>
<linearGradient id="paint1_linear_14050_4125" x1="35.2889" y1="29.1889" x2="73.6547" y2="65.3122" gradientUnits="userSpaceOnUse">
<stop stop-color="#3598A7"/>
<stop offset="1" stop-color="#3598A7"/>
</linearGradient>
<clipPath id="clip0_14050_4125">
<rect width="72" height="72" fill="white" transform="translate(6.5)"/>
</clipPath>
</defs>
</svg>
