<svg width="65" height="69" viewBox="0 0 65 69" fill="none" xmlns="http://www.w3.org/2000/svg">
<path d="M29.4 19.8594L15 43.0594C18.2 43.326 20.8667 44.6594 23 47.0594C25.2667 49.4594 26.4 52.3927 26.4 55.8594C26.4 59.726 25.0667 62.7927 22.4 65.0594C19.8667 67.326 16.8667 68.4594 13.4 68.4594C9.66667 68.4594 6.53333 67.326 4 65.0594C1.33333 62.7927 0 59.5927 0 55.4594C0 51.5927 1.46667 47.2594 4.4 42.4594C7.2 37.6594 11.7333 30.7927 18 21.8594L19.4 19.8594H29.4ZM65 19.8594L50.6 43.0594C53.8 43.326 56.4667 44.6594 58.6 47.0594C60.8667 49.4594 62 52.3927 62 55.8594C62 59.726 60.6667 62.7927 58 65.0594C55.4667 67.326 52.4667 68.4594 49 68.4594C45.2667 68.4594 42.0667 67.326 39.4 65.0594C36.8667 62.7927 35.6 59.5927 35.6 55.4594C35.6 51.5927 37 47.2594 39.8 42.4594C42.7333 37.6594 47.3333 30.7927 53.6 21.8594L55 19.8594H65Z" fill="#1A6672"/>
</svg>
