<svg width="85" height="115" viewBox="0 0 85 115" fill="none" xmlns="http://www.w3.org/2000/svg">
<path d="M42.4915 42.0063C45.835 42.0063 48.5454 39.2959 48.5454 35.9524C48.5454 32.6089 45.835 29.8984 42.4915 29.8984C39.1479 29.8984 36.4375 32.6089 36.4375 35.9524C36.4375 39.2959 39.1479 42.0063 42.4915 42.0063Z" fill="#007687"/>
<path fill-rule="evenodd" clip-rule="evenodd" d="M42.4901 23.6484C50.6183 23.6484 58.1692 24.8148 63.8626 26.7748C70.7223 29.1364 74.94 32.716 74.94 35.9574C74.94 39.3351 70.4701 43.138 63.1037 45.5786C57.5345 47.4238 50.2058 48.387 42.4901 48.387C34.5793 48.387 27.0882 47.4829 21.4562 45.5584C14.3308 43.1229 10.0391 39.2708 10.0391 35.9574C10.0391 32.7423 14.066 29.1904 20.8293 26.8324C26.5439 24.84 34.2813 23.6484 42.489 23.6484H42.4901Z" stroke="#007687" stroke-width="2.5"/>
<path fill-rule="evenodd" clip-rule="evenodd" d="M31.7763 29.8378C35.8371 22.7966 40.6195 16.8381 45.1617 12.8852C50.6344 8.12262 55.8424 6.25745 58.6501 7.87656C61.5763 9.56397 62.6375 15.336 61.0718 22.9364C59.8891 28.6828 57.0612 35.5123 53.2066 42.1963C49.2544 49.0493 44.7291 55.087 40.2487 59.0031C34.5794 63.9591 29.0983 65.7525 26.228 64.0972C23.4428 62.4922 22.3777 57.2283 23.7138 50.1914C24.8428 44.2457 27.6759 36.9478 31.775 29.8377L31.7763 29.8378Z" stroke="#007687" stroke-width="2.5"/>
<path fill-rule="evenodd" clip-rule="evenodd" d="M31.7851 42.2111C27.7129 35.1779 24.9404 28.0574 23.7831 22.1481C22.39 15.0282 23.375 9.58454 26.1802 7.96072C29.1035 6.26836 34.6342 8.23152 40.4369 13.3839C44.8242 17.2793 49.3293 23.139 53.1951 29.8167C57.1586 36.663 60.1292 43.5991 61.2847 49.4365C62.747 56.8234 61.5635 62.4675 58.6959 64.1276C55.9135 65.7383 50.8218 64.0329 45.3926 59.3609C40.8053 55.4135 35.8975 49.3142 31.7851 42.211V42.2111Z" stroke="#007687" stroke-width="2.5"/>
<path d="M2.81563 86.72H8.40763C10.3116 86.72 11.7996 87.192 12.8716 88.136C13.9436 89.064 14.4796 90.352 14.4796 92C14.4796 93.232 14.1356 94.272 13.4476 95.12C12.7756 95.968 11.9436 96.544 10.9516 96.848L14.8636 104H12.2956L8.71963 97.232H5.11963V104H2.81563V86.72ZM8.33563 88.664H5.11963V95.336H8.52763C9.66363 95.336 10.5516 95.04 11.1916 94.448C11.8476 93.856 12.1756 93.04 12.1756 92C12.1756 90.96 11.8316 90.144 11.1436 89.552C10.4716 88.96 9.53563 88.664 8.33563 88.664ZM21.9185 91.712C23.6145 91.712 24.9425 92.256 25.9025 93.344C26.8625 94.416 27.3425 95.736 27.3425 97.304C27.3425 97.48 27.3345 97.704 27.3185 97.976C27.3025 98.248 27.2945 98.416 27.2945 98.48H18.3665V98.504C18.3985 99.688 18.7905 100.624 19.5425 101.312C20.2945 102 21.2945 102.344 22.5425 102.344C24.2705 102.344 25.7185 101.968 26.8865 101.216V103.256C25.6705 103.944 24.1745 104.288 22.3985 104.288C20.5105 104.288 18.9745 103.704 17.7905 102.536C16.6225 101.368 16.0385 99.856 16.0385 98C16.0385 96.192 16.5985 94.696 17.7185 93.512C18.8545 92.312 20.2545 91.712 21.9185 91.712ZM25.1345 96.896C25.1505 95.984 24.8705 95.208 24.2945 94.568C23.7185 93.912 22.9185 93.584 21.8945 93.584C20.9185 93.584 20.1105 93.904 19.4705 94.544C18.8465 95.184 18.4865 95.968 18.3905 96.896H25.1345ZM29.7946 94.664V92.6C30.8986 92.008 32.3066 91.712 34.0186 91.712C37.3786 91.712 39.0586 93.256 39.0586 96.344V104H36.9946L36.9706 102.584L37.0426 101.624H36.9946C36.9306 101.768 36.8106 101.96 36.6346 102.2C36.4746 102.44 36.2266 102.736 35.8906 103.088C35.5546 103.424 35.1146 103.712 34.5706 103.952C34.0266 104.176 33.4426 104.288 32.8186 104.288C31.6986 104.288 30.7866 103.976 30.0826 103.352C29.3786 102.712 29.0266 101.848 29.0266 100.76C29.0266 99.272 29.7066 98.2 31.0666 97.544C32.4426 96.872 34.3706 96.712 36.8506 97.064V96.464C36.8506 94.592 35.8026 93.656 33.7066 93.656C32.2186 93.656 30.9146 93.992 29.7946 94.664ZM33.2026 102.488C34.1946 102.488 35.0426 102.088 35.7466 101.288C36.4506 100.488 36.8026 99.6 36.8026 98.624C34.9466 98.32 33.5546 98.368 32.6266 98.768C31.6986 99.168 31.2346 99.808 31.2346 100.688C31.2346 101.216 31.4106 101.648 31.7626 101.984C32.1306 102.32 32.6106 102.488 33.2026 102.488ZM44.7024 94.904C43.9344 95.704 43.5504 96.736 43.5504 98C43.5504 99.264 43.9264 100.296 44.6784 101.096C45.4464 101.896 46.4384 102.296 47.6544 102.296C48.9344 102.296 50.1504 101.944 51.3024 101.24V103.328C50.1024 103.968 48.8464 104.288 47.5344 104.288C45.6944 104.288 44.1904 103.696 43.0224 102.512C41.8544 101.328 41.2704 99.824 41.2704 98C41.2704 96.176 41.8544 94.672 43.0224 93.488C44.1904 92.304 45.6944 91.712 47.5344 91.712C48.8304 91.712 50.0624 92.024 51.2304 92.648V94.76C50.1104 94.056 48.9184 93.704 47.6544 93.704C46.4544 93.704 45.4704 94.104 44.7024 94.904ZM52.2517 92H54.2437V88.4H56.4277V92H60.0517V93.824H56.4277V100.04C56.4277 101.56 57.0197 102.32 58.2037 102.32C58.9557 102.32 59.7077 102.144 60.4597 101.792V103.736C59.7877 104.104 58.8917 104.288 57.7717 104.288C56.7797 104.288 55.9397 104 55.2517 103.424C54.5637 102.848 54.2197 101.944 54.2197 100.712V93.824H52.2517V92ZM72.3335 86.72V99.56C72.3335 102.712 70.9335 104.288 68.1335 104.288C67.1895 104.288 66.4375 104.128 65.8775 103.808V101.72C66.4375 102.056 67.1095 102.224 67.8935 102.224C69.3175 102.224 70.0295 101.472 70.0295 99.968V86.72H72.3335ZM81.3581 100.88C81.3581 100.4 81.1581 100.024 80.7581 99.752C80.3581 99.48 79.6701 99.184 78.6941 98.864C77.4941 98.48 76.5901 98.008 75.9821 97.448C75.3741 96.888 75.0701 96.104 75.0701 95.096C75.0701 94.104 75.4701 93.296 76.2701 92.672C77.0861 92.032 78.1181 91.712 79.3661 91.712C80.5981 91.712 81.7261 91.952 82.7501 92.432V94.448C81.6941 93.888 80.6461 93.608 79.6061 93.608C78.8861 93.608 78.2941 93.744 77.8301 94.016C77.3821 94.272 77.1581 94.656 77.1581 95.168C77.1581 95.616 77.3501 95.984 77.7341 96.272C78.1181 96.544 78.7501 96.824 79.6301 97.112C80.9741 97.56 81.9421 98.064 82.5341 98.624C83.1261 99.168 83.4221 99.928 83.4221 100.904C83.4221 101.976 83.0221 102.808 82.2221 103.4C81.4381 103.992 80.3821 104.288 79.0541 104.288C77.5501 104.288 76.2461 104.024 75.1421 103.496V101.456C76.4861 102.112 77.7661 102.44 78.9821 102.44C79.6701 102.44 80.2381 102.312 80.6861 102.056C81.1341 101.8 81.3581 101.408 81.3581 100.88Z" fill="#4D6264"/>
</svg>
