<svg width="48" height="48" viewBox="0 0 48 48" fill="none" xmlns="http://www.w3.org/2000/svg">
<circle cx="24" cy="24" r="24" fill="#404040"/>
<path fill-rule="evenodd" clip-rule="evenodd" d="M21.8578 21.4716H24.9528V23.0132C25.3987 22.1266 26.542 21.3299 28.2595 21.3299C31.552 21.3299 32.3337 23.0949 32.3337 26.3332V32.3307H29.0003V27.0707C29.0003 25.2266 28.5545 24.1866 27.4195 24.1866C25.8453 24.1866 25.1912 25.3074 25.1912 27.0699V32.3307H21.8578V21.4716ZM16.142 32.1891H19.4753V21.3299H16.142V32.1891ZM19.9528 17.7891C19.9529 18.0685 19.8975 18.3451 19.7898 18.6029C19.6821 18.8607 19.5242 19.0945 19.3253 19.2907C18.9223 19.6912 18.3768 19.9154 17.8087 19.9141C17.2415 19.9137 16.6973 19.6901 16.2937 19.2916C16.0955 19.0947 15.9381 18.8606 15.8306 18.6028C15.7231 18.3449 15.6675 18.0684 15.667 17.7891C15.667 17.2249 15.892 16.6849 16.2945 16.2866C16.6977 15.8875 17.2422 15.6638 17.8095 15.6641C18.3778 15.6641 18.9228 15.8882 19.3253 16.2866C19.727 16.6849 19.9528 17.2249 19.9528 17.7891Z" fill="white"/>
</svg>
