<svg width="85" height="115" viewBox="0 0 85 115" fill="none" xmlns="http://www.w3.org/2000/svg">
<g clip-path="url(#clip0_14050_4114)">
<path d="M64.1014 4.95312H78.5001L42.5034 67.0473L6.50684 4.95312H34.0442L42.5034 19.3518L50.7827 4.95312H64.1014Z" fill="#41B883"/>
<path d="M6.50684 4.95312L42.5034 67.0473L78.5001 4.95312H64.1014L42.5034 42.2096L20.7255 4.95312H6.50684Z" fill="#007687"/>
<path d="M20.7246 4.95312L42.5026 42.3896L64.1005 4.95312H50.7818L42.5026 19.3518L34.0434 4.95312H20.7246Z" fill="#35595E"/>
</g>
<path d="M25.9335 86.72L17.9655 104.288H17.9175L9.94953 86.72H12.4215L14.7975 92.12C16.6695 96.376 17.7175 98.792 17.9415 99.368C18.1655 98.792 19.2135 96.376 21.0855 92.12L23.4615 86.72H25.9335ZM36.1498 104H34.0618L34.0138 102.32C34.0138 102.176 34.0218 102.032 34.0378 101.888C34.0538 101.744 34.0698 101.632 34.0858 101.552L34.1098 101.408H34.0618C33.7738 102.096 33.2298 102.752 32.4298 103.376C31.6458 103.984 30.7018 104.288 29.5978 104.288C26.8618 104.288 25.4938 102.704 25.4938 99.536V92H27.7258V99.08C27.7258 99.544 27.7498 99.944 27.7978 100.28C27.8618 100.616 27.9658 100.944 28.1098 101.264C28.2698 101.584 28.5018 101.824 28.8058 101.984C29.1258 102.144 29.5258 102.224 30.0058 102.224C31.1418 102.224 32.0778 101.816 32.8138 101C33.5498 100.168 33.9178 99.136 33.9178 97.904V92H36.1498V104ZM44.6777 91.712C46.3737 91.712 47.7017 92.256 48.6617 93.344C49.6217 94.416 50.1017 95.736 50.1017 97.304C50.1017 97.48 50.0937 97.704 50.0777 97.976C50.0617 98.248 50.0537 98.416 50.0537 98.48H41.1257V98.504C41.1577 99.688 41.5497 100.624 42.3017 101.312C43.0537 102 44.0537 102.344 45.3017 102.344C47.0297 102.344 48.4777 101.968 49.6457 101.216V103.256C48.4297 103.944 46.9337 104.288 45.1577 104.288C43.2697 104.288 41.7337 103.704 40.5497 102.536C39.3817 101.368 38.7977 99.856 38.7977 98C38.7977 96.192 39.3577 94.696 40.4777 93.512C41.6137 92.312 43.0137 91.712 44.6777 91.712ZM47.8937 96.896C47.9097 95.984 47.6297 95.208 47.0537 94.568C46.4777 93.912 45.6777 93.584 44.6537 93.584C43.6777 93.584 42.8697 93.904 42.2297 94.544C41.6057 95.184 41.2457 95.968 41.1497 96.896H47.8937ZM62.7996 86.72V99.56C62.7996 102.712 61.3996 104.288 58.5996 104.288C57.6556 104.288 56.9036 104.128 56.3436 103.808V101.72C56.9036 102.056 57.5756 102.224 58.3596 102.224C59.7836 102.224 60.4956 101.472 60.4956 99.968V86.72H62.7996ZM71.8242 100.88C71.8242 100.4 71.6242 100.024 71.2242 99.752C70.8242 99.48 70.1362 99.184 69.1602 98.864C67.9602 98.48 67.0562 98.008 66.4482 97.448C65.8402 96.888 65.5362 96.104 65.5362 95.096C65.5362 94.104 65.9362 93.296 66.7362 92.672C67.5522 92.032 68.5842 91.712 69.8322 91.712C71.0642 91.712 72.1922 91.952 73.2162 92.432V94.448C72.1602 93.888 71.1122 93.608 70.0722 93.608C69.3522 93.608 68.7602 93.744 68.2962 94.016C67.8482 94.272 67.6242 94.656 67.6242 95.168C67.6242 95.616 67.8162 95.984 68.2002 96.272C68.5842 96.544 69.2162 96.824 70.0962 97.112C71.4402 97.56 72.4082 98.064 73.0002 98.624C73.5922 99.168 73.8882 99.928 73.8882 100.904C73.8882 101.976 73.4882 102.808 72.6882 103.4C71.9042 103.992 70.8482 104.288 69.5202 104.288C68.0162 104.288 66.7122 104.024 65.6082 103.496V101.456C66.9522 102.112 68.2322 102.44 69.4482 102.44C70.1362 102.44 70.7042 102.312 71.1522 102.056C71.6002 101.8 71.8242 101.408 71.8242 100.88Z" fill="#4D6264"/>
<defs>
<clipPath id="clip0_14050_4114">
<rect width="72" height="72" fill="white" transform="translate(6.5)"/>
</clipPath>
</defs>
</svg>
